<?xml version="1.0" encoding="UTF-8"?>
<svg version="1.1" xmlns="http://www.w3.org/2000/svg" width="1165" height="977">
<path d="M0 0 C384.45 0 768.9 0 1165 0 C1165 322.41 1165 644.82 1165 977 C780.55 977 396.1 977 0 977 C0 654.59 0 332.18 0 0 Z " fill="#12319E" transform="translate(0,0)"/>
<path d="M0 0 C0.90737411 -0.00014603 1.81474823 -0.00029205 2.74961853 -0.0004425 C5.75807053 0.00025588 8.76646112 0.00804485 11.77490234 0.01586914 C13.85712653 0.01773358 15.93935115 0.01915736 18.02157593 0.02015686 C23.50920823 0.02397998 28.99681417 0.03380853 34.48443604 0.04486084 C40.08125451 0.05507937 45.67807723 0.05965543 51.27490234 0.06469727 C62.26189311 0.07543096 73.24886429 0.09250494 84.23583984 0.11352539 C84.51454926 0.67618103 84.79325867 1.23883667 85.08041382 1.81854248 C86.36700874 4.41275589 87.65687275 7.00533114 88.94677734 9.59790039 C89.38497803 10.48268066 89.82317871 11.36746094 90.2746582 12.27905273 C92.99034827 17.73049337 95.82685184 23.0828495 98.86083984 28.36352539 C102.07660433 33.98983031 105.07690264 39.67502316 107.93994141 45.48828125 C113.19010215 56.12227561 118.73999437 66.60513743 124.23583984 77.11352539 C124.67154297 77.94754883 125.10724609 78.78157227 125.55615234 79.64086914 C129.53772615 87.25723452 133.55370728 94.85406769 137.62646484 102.42211914 C138.87142015 104.73583341 140.11628172 107.0495975 141.36083984 109.36352539 C141.83401138 110.24305374 141.83401138 110.24305374 142.31674194 111.14035034 C147.45686964 120.70357184 152.46649857 130.32920747 157.42333984 139.98852539 C163.4316921 151.69601632 169.62147751 163.28754012 175.97216797 174.8137207 C180.45870464 182.97894007 184.80729231 191.20460331 188.93896484 199.55493164 C192.70866942 207.13094469 196.63523698 214.61567728 200.61846924 222.08114624 C207.77457728 235.49762727 214.81900183 248.96821758 221.75732422 262.49853516 C225.50835408 269.80736241 225.50835408 269.80736241 229.35888672 277.06396484 C229.89308731 278.05533195 229.89308731 278.05533195 230.43807983 279.06672668 C231.11564449 280.32037508 231.79638363 281.57231589 232.48110962 282.82206726 C239.16678281 295.18481867 242.68894769 308.37417939 245.23583984 322.11352539 C245.41236084 323.04938477 245.58888184 323.98524414 245.77075195 324.94946289 C250.78357294 359.05243403 240.03897247 389.17616657 222.86083984 418.11352539 C221.62015692 420.22225383 220.3806198 422.33165672 219.14208984 424.44165039 C218.50142578 425.5328418 217.86076172 426.6240332 217.20068359 427.74829102 C213.88247518 433.43146506 210.62032696 439.14653742 207.36083984 444.86352539 C207.02820129 445.44666504 206.69556274 446.02980469 206.35284424 446.63061523 C204.65728762 449.60307503 202.96244026 452.57593813 201.26806641 455.54907227 C198.2611324 460.82445834 195.24724367 466.09586977 192.23382568 471.36755371 C190.56754054 474.28271197 188.90171357 477.19813202 187.23583984 480.11352539 C186.56917537 481.28019331 185.9025087 482.44685998 185.23583984 483.61352539 C184.90583984 484.19102539 184.57583984 484.76852539 184.23583984 485.36352539 C165.23583978 518.61352551 165.23583978 518.61352551 164.2358551 520.36349487 C163.56913319 521.53026076 162.90241566 522.69702915 162.23570251 523.86380005 C160.569917 526.77896917 158.90405557 529.69409486 157.23803711 532.60913086 C154.22743671 537.87695734 151.21739837 543.14510098 148.21017456 548.41485596 C140.79744322 561.40455894 133.35972896 574.37924583 125.87792969 587.3293457 C119.64795731 598.11882915 113.46788442 608.93662685 107.29322815 619.7578125 C104.8602345 624.02121827 102.42373389 628.28260768 99.98583984 632.54321289 C98.9289141 634.39087187 97.87203008 636.2385547 96.81515503 638.08624268 C95.84448289 639.78287235 94.87330388 641.47921199 93.90209961 643.17553711 C88.97099078 651.79863227 84.10622561 660.45506181 79.23583984 669.11352539 C38.31583984 669.11352539 -2.60416016 669.11352539 -44.76416016 669.11352539 C-50.20916016 659.21352539 -50.20916016 659.21352539 -55.76416016 649.11352539 C-58.42828597 644.55419814 -61.10424696 640.0119944 -63.82666016 635.48852539 C-68.79890386 627.17660465 -73.66567619 618.82185165 -78.32348633 610.32910156 C-81.40250387 604.72540633 -84.61738857 599.21224166 -87.87719727 593.7121582 C-91.20699163 588.08517405 -94.46494833 582.41950732 -97.70166016 576.73852539 C-102.90128234 567.61406462 -108.14770158 558.51784753 -113.41845703 549.43432617 C-114.74902731 547.13962351 -116.07732631 544.84362294 -117.40478516 542.54711914 C-121.89014673 534.78874492 -126.3892918 527.03879709 -130.91137695 519.30175781 C-136.40234157 509.90653988 -141.84992323 500.48928998 -147.23364258 491.03222656 C-150.95051584 484.51286634 -154.72341142 478.02766283 -158.51416016 471.55102539 C-163.71381147 462.66457265 -168.85130727 453.74466565 -173.95166016 444.80102539 C-181.28160718 431.94945081 -188.66298321 419.12967998 -196.12744141 406.35571289 C-202.20941305 395.94718306 -208.26085726 385.52422461 -214.22485352 375.04760742 C-218.02778004 368.37724036 -221.88742144 361.74122498 -225.76416016 355.11352539 C-230.63504875 346.78622022 -235.4524936 338.43107867 -240.22509766 330.04711914 C-244.02800065 323.37694802 -247.88751312 316.74106825 -251.76416016 310.11352539 C-256.63504875 301.78622022 -261.4524936 293.43107867 -266.22509766 285.04711914 C-270.0280038 278.3769425 -273.8879581 271.74133274 -277.76416016 265.11352539 C-282.40672916 257.1653338 -287.04379962 249.2141271 -291.63916016 241.23852539 C-292.15736328 240.34649414 -292.67556641 239.45446289 -293.20947266 238.53540039 C-293.67869141 237.71813477 -294.14791016 236.90086914 -294.63134766 236.05883789 C-295.25178955 234.98400146 -295.25178955 234.98400146 -295.88476562 233.88745117 C-296.76416016 232.11352539 -296.76416016 232.11352539 -296.76416016 230.11352539 C-298.46004252 231.75641143 -300.11892294 233.42036864 -301.76416016 235.11352539 C-302.65361328 236.02618164 -302.65361328 236.02618164 -303.56103516 236.95727539 C-308.30199413 242.03958341 -312.08158773 247.42621539 -315.70654297 253.328125 C-317.51253205 256.25610322 -319.27656569 258.74552257 -321.76416016 261.11352539 C-322.14636719 260.45457275 -322.52857422 259.79562012 -322.92236328 259.11669922 C-332.46579461 240.13846497 -332.46579461 240.13846497 -344.76416016 223.11352539 C-349.87208698 222.37119783 -349.87208698 222.37119783 -354.49853516 224.21899414 C-356.42392807 226.07562302 -358.08408417 228.03064431 -359.76416016 230.11352539 C-360.53759766 231.0480957 -361.31103516 231.98266602 -362.10791016 232.94555664 C-376.56754178 250.83251023 -385.5561057 270.54621839 -390.95166016 292.86352539 C-391.11875488 293.54833984 -391.28584961 294.2331543 -391.45800781 294.9387207 C-397.66368119 321.56367981 -396.84329012 355.3521043 -382.76416016 379.11352539 C-381.71482115 380.92795808 -380.6667288 382.7431121 -379.61962891 384.55883789 C-377.25618582 388.63869139 -374.87095592 392.70497968 -372.47509766 396.76586914 C-368.81184227 402.99762496 -365.27589614 409.29546117 -361.76416016 415.61352539 C-357.18892716 423.83578508 -352.5284466 431.99935004 -347.76416016 440.11352539 C-342.39219222 449.26265828 -337.1733949 458.4875567 -332.01416016 467.75805664 C-328.01451563 474.92706234 -323.92067971 482.03445302 -319.76416016 489.11352539 C-314.39219222 498.26265828 -309.1733949 507.4875567 -304.01416016 516.75805664 C-300.01451563 523.92706234 -295.92067971 531.03445302 -291.76416016 538.11352539 C-286.39219222 547.26265828 -281.1733949 556.4875567 -276.01416016 565.75805664 C-272.01451563 572.92706234 -267.92067971 580.03445302 -263.76416016 587.11352539 C-258.99986646 595.22771309 -254.33988862 603.39153328 -249.76416016 611.61352539 C-243.88591854 622.17575721 -237.84300714 632.63386242 -231.72509766 643.05883789 C-230.96144897 644.36485962 -230.96144897 644.36485962 -230.18237305 645.69726562 C-229.28576419 647.22485003 -228.38218111 648.74838105 -227.46899414 650.26611328 C-224.73036311 654.87694608 -224.73036311 654.87694608 -225.07666016 657.30102539 C-227.60409814 660.015681 -230.47483988 661.40795191 -233.76416016 663.11352539 C-234.93401509 661.24051297 -236.09979013 659.36495246 -237.26416016 657.48852539 C-237.62219727 656.91255615 -237.98023438 656.33658691 -238.34912109 655.74316406 C-240.28666305 652.60121556 -242.15911719 649.43920473 -243.93603516 646.20336914 C-244.45907227 645.2561499 -244.45907227 645.2561499 -244.99267578 644.28979492 C-245.97212087 642.50272901 -246.93875001 640.70865704 -247.90478516 638.91430664 C-249.79507763 636.06695432 -250.52980842 635.02835116 -253.76416016 634.11352539 C-257.55960386 633.59871787 -259.14283954 633.65724306 -262.26416016 635.94946289 C-263.08916016 636.78735352 -263.91416016 637.62524414 -264.76416016 638.48852539 C-280.9255256 653.97194452 -306.30699421 671.34089533 -329.35668945 671.22705078 C-330.51314468 671.22726982 -330.51314468 671.22726982 -331.69296265 671.22749329 C-334.24146335 671.22679658 -336.78989097 671.21901549 -339.33837891 671.21118164 C-341.10529032 671.2093166 -342.87220226 671.2078931 -344.63911438 671.20689392 C-349.28994168 671.20307551 -353.94073777 671.19325097 -358.59155273 671.18218994 C-363.33723529 671.1719613 -368.08292288 671.16739318 -372.82861328 671.16235352 C-382.14047596 671.15162812 -391.45231546 671.13455978 -400.76416016 671.11352539 C-401.22266357 670.22124741 -401.68116699 669.32896942 -402.15356445 668.40965271 C-403.87591616 665.05888982 -405.60037873 661.70921692 -407.32543945 658.35984802 C-408.06786629 656.91765413 -408.80974129 655.475176 -409.55102539 654.03239441 C-413.50161184 646.34416824 -417.44976908 638.66875821 -421.76416016 631.17602539 C-424.89228342 625.7350491 -427.77183729 620.21439694 -430.54443359 614.58666992 C-434.94124225 605.6798209 -439.58951197 596.90335898 -444.19970703 588.10571289 C-445.73255639 585.17397105 -447.25756372 582.23829752 -448.77978516 579.30102539 C-453.75874468 569.70269787 -458.80643886 560.15245151 -464.01416016 550.67602539 C-467.31685194 544.66574504 -470.5589379 538.64710873 -473.57666016 532.48852539 C-477.42462962 524.63891356 -481.57808528 516.95808715 -485.72750854 509.26495361 C-490.97898797 499.5217931 -496.08986407 489.71281753 -501.13916016 479.86352539 C-505.54998457 471.26027305 -510.01144289 462.71032046 -514.82739258 454.32470703 C-517.53276963 449.59402494 -519.99287105 444.76294599 -522.39941406 439.87670898 C-525.72539829 433.13945888 -529.17849666 426.469921 -532.63916016 419.80102539 C-533.54637817 418.04786011 -533.54637817 418.04786011 -534.47192383 416.25927734 C-537.16518775 411.06577219 -539.87234865 405.88391815 -542.67822266 400.75024414 C-548.10629907 390.78944413 -552.40658883 380.95152851 -555.76416016 370.11352539 C-556.15345703 368.89922852 -556.54275391 367.68493164 -556.94384766 366.43383789 C-566.31985945 335.70515689 -564.28057779 299.38952776 -549.35498047 270.68212891 C-548.17528529 268.48279362 -546.97121581 266.29796988 -545.76416016 264.11352539 C-545.21518066 263.10837891 -544.66620117 262.10323242 -544.10058594 261.06762695 C-537.79152346 249.52538795 -531.39376491 238.03674794 -524.66943359 226.73022461 C-520.74997747 220.13062218 -516.94221905 213.46820129 -513.13916016 206.80102539 C-512.79861603 206.20411896 -512.4580719 205.60721252 -512.10720825 204.99221802 C-510.35779053 201.92542709 -508.60913421 198.85820291 -506.86083984 195.79077148 C-503.83092626 190.47552461 -500.79437251 185.16407363 -497.75811768 179.85244751 C-496.09317414 176.93963978 -494.42869117 174.02656887 -492.76416016 171.11352539 C-492.09749568 169.94685747 -491.43082901 168.78019081 -490.76416016 167.61352539 C-490.43416016 167.03602539 -490.10416016 166.45852539 -489.76416016 165.86352539 C-454.76416015 104.61352538 -454.76416015 104.61352538 -453.76417542 102.86355591 C-453.0974535 101.69679002 -452.43073598 100.53002163 -451.76402283 99.36325073 C-450.09823731 96.44808161 -448.43237588 93.53295592 -446.76635742 90.61791992 C-443.75576829 85.35011316 -440.74574764 80.08198558 -437.73852539 74.81225586 C-430.89336397 62.81708303 -424.03732126 50.82833269 -417.13916016 38.86352539 C-416.60282959 37.93266113 -416.06649902 37.00179687 -415.51391602 36.04272461 C-414.38506925 34.08716116 -413.22848831 32.14739705 -412.04753113 30.22285461 C-410.16263087 27.01048508 -408.72641804 23.71076886 -407.28427124 20.27876282 C-400.02851104 4.21616369 -400.02851104 4.21616369 -392.92373276 0.71298599 C-384.70715425 -1.49662614 -376.27512789 -1.07380722 -367.84228516 -0.82788086 C-365.12843306 -0.81466232 -362.41493521 -0.83246299 -359.70111084 -0.84715271 C-354.03287725 -0.85873338 -348.37234542 -0.77484183 -342.70605469 -0.63085938 C-336.1779972 -0.46601259 -329.66193845 -0.44714577 -323.1323483 -0.5072723 C-316.81538974 -0.56261169 -310.50266886 -0.52106566 -304.18618011 -0.43391228 C-301.51281149 -0.39828204 -298.84706806 -0.39927086 -296.17264557 -0.41745186 C-275.94501089 -0.47302753 -275.94501089 -0.47302753 -270.69431114 3.79665184 C-267.34338107 7.79280199 -265.32584293 12.16756145 -263.56142998 17.04087448 C-262.38190038 20.10728064 -260.75029231 22.74916294 -259.03369141 25.54711914 C-257.88060184 27.5479916 -256.72826726 29.54929933 -255.57666016 31.55102539 C-254.28110735 33.7997349 -252.98553384 36.04843247 -251.68994141 38.29711914 C-251.03977051 39.42617676 -250.38959961 40.55523437 -249.71972656 41.71850586 C-246.57083962 47.18522519 -243.41732752 52.64927426 -240.26416016 58.11352539 C-239.01413666 60.2801785 -237.76413669 62.44684518 -236.51416016 64.61352539 C-235.89541016 65.68602539 -235.27666016 66.75852539 -234.63916016 67.86352539 C-229.01416016 77.61352539 -229.01416016 77.61352539 -227.13891602 80.86401367 C-225.88980498 83.0290961 -224.64061886 85.19413521 -223.39135742 87.35913086 C-220.25213706 92.79968245 -217.11425453 98.24099755 -213.97900391 103.68383789 C-207.93360857 114.17584633 -201.87305797 124.65834215 -195.76416016 135.11352539 C-189.01714822 146.66082055 -182.33076698 158.24254566 -175.65527344 169.83129883 C-172.52735867 175.26012481 -169.39557568 180.6867182 -166.26416016 186.11352539 C-165.01414137 188.28018122 -163.76414137 190.44684789 -162.51416016 192.61352539 C-161.89541016 193.68602539 -161.27666016 194.75852539 -160.63916016 195.86352539 C-110.01416016 283.61352539 -110.01416016 283.61352539 -108.13891602 286.86401367 C-106.88980498 289.0290961 -105.64061886 291.19413521 -104.39135742 293.35913086 C-101.25213706 298.79968245 -98.11425453 304.24099755 -94.97900391 309.68383789 C-88.93360857 320.17584633 -82.87305797 330.65834215 -76.76416016 341.11352539 C-70.01714822 352.66082055 -63.33076698 364.24254566 -56.65527344 375.83129883 C-52.90764411 382.3357048 -49.15511055 388.83728334 -45.40258789 395.33886719 C-42.19883554 400.89038831 -38.99831439 406.44373336 -35.80322266 412.00024414 C-27.70014634 426.09931035 -27.70014634 426.09931035 -19.45166016 440.11352539 C-18.91919678 441.01204224 -18.91919678 441.01204224 -18.37597656 441.92871094 C-16.97946016 444.25215898 -15.69060667 446.18707888 -13.76416016 448.11352539 C-10.35751316 448.72672185 -7.92743948 448.797524 -4.87744141 447.00415039 C5.01959167 438.8938028 11.88839835 427.60360016 17.92480469 416.4987793 C18.94974917 414.65760477 20.08408127 412.87814632 21.23583984 411.11352539 C22.22583984 411.11352539 23.21583984 411.11352539 24.23583984 411.11352539 C26.19700175 414.58012926 28.15405284 418.04901824 30.10742188 421.52001953 C30.77167646 422.69903101 31.43702586 423.8774264 32.10351562 425.05517578 C33.06460711 426.75396604 34.02136181 428.4552075 34.97802734 430.15649414 C35.55407715 431.17767334 36.13012695 432.19885254 36.72363281 433.25097656 C38.08638267 435.8306088 39.21413516 438.38386372 40.23583984 441.11352539 C41.9309607 439.46977184 43.59172552 437.80771427 45.23583984 436.11352539 C45.74373047 435.59016602 46.25162109 435.06680664 46.77490234 434.52758789 C72.2458526 406.88376036 79.43257778 370.75159122 78.36572266 334.24682617 C78.18015077 329.77007874 77.88241737 325.32050155 77.42333984 320.86352539 C77.35348877 320.16783447 77.2836377 319.47214355 77.21166992 318.75537109 C76.14884223 310.22208092 71.74859099 303.14989215 67.67333984 295.73852539 C66.87271118 294.27660767 66.87271118 294.27660767 66.0559082 292.78515625 C62.5066441 286.33689507 58.85044211 279.96361886 55.0859375 273.63916016 C51.65513237 267.86511917 48.34141766 262.02956036 45.04833984 256.17602539 C40.35278192 247.83138398 35.59750667 239.52399633 30.79833984 231.23852539 C25.85120357 222.69433738 20.9768624 214.11424192 16.17333984 205.48852539 C11.056647 196.30162162 5.80978186 187.20054339 0.4855957 178.13256836 C-4.29315358 169.97262226 -8.91583832 161.7316037 -13.51416016 153.46899414 C-17.51380468 146.29998844 -21.6076406 139.19259776 -25.76416016 132.11352539 C-31.13612809 122.9643925 -36.35492541 113.73949408 -41.51416016 104.46899414 C-45.51380511 97.29998767 -49.607668 90.19261455 -53.76416016 83.11352539 C-59.19416453 73.86480067 -64.47557395 64.54171533 -69.69433594 55.17236328 C-74.94450011 45.75690937 -80.32756073 36.42231501 -85.76416016 27.11352539 C-82.6225441 23.84848871 -79.50242494 21.04690035 -75.76416016 18.48852539 C-74.52666016 17.63387695 -74.52666016 17.63387695 -73.26416016 16.76196289 C-72.43916016 16.21797852 -71.61416016 15.67399414 -70.76416016 15.11352539 C-69.91853516 14.52829102 -69.07291016 13.94305664 -68.20166016 13.34008789 C-65.76416016 12.11352539 -65.76416016 12.11352539 -63.75927734 12.33007812 C-61.30446867 13.29403812 -60.72093366 14.1659071 -59.40478516 16.42211914 C-59.01162109 17.08663086 -58.61845703 17.75114258 -58.21337891 18.43579102 C-57.61976563 19.48283203 -57.61976563 19.48283203 -57.01416016 20.55102539 C-56.60294922 21.24518555 -56.19173828 21.9393457 -55.76806641 22.65454102 C-52.76416016 27.80908446 -52.76416016 27.80908446 -52.76416016 30.11352539 C-52.12091797 29.57985352 -51.47767578 29.04618164 -50.81494141 28.49633789 C-48.34640567 26.46094038 -45.86738626 24.4392782 -43.38037109 22.42651367 C-41.83738946 21.17301591 -40.30441262 19.90723272 -38.77197266 18.64086914 C-27.63593076 9.70086604 -14.54577569 -0.06063818 0 0 Z " fill="#FEFEFE" transform="translate(736.76416015625,165.886474609375)"/>
<path d="M0 0 C384.45 0 768.9 0 1165 0 C1165 322.41 1165 644.82 1165 977 C780.55 977 396.1 977 0 977 C0 654.59 0 332.18 0 0 Z M227.41235352 54.87060547 C223.64091686 60.81542399 220.23367042 66.90520306 216.9375 73.125 C212.58966853 81.24049411 208.17581865 89.30899806 203.625 97.3125 C198.89186757 105.64177946 194.20804139 113.99653033 189.5625 122.375 C181.83928609 136.30095413 174.05954966 150.19477254 166.27050781 164.08398438 C164.534084 167.18075374 162.79811386 170.27777662 161.0625 173.375 C160.48822266 174.39980469 159.91394531 175.42460937 159.32226562 176.48046875 C155.00839397 184.18484154 150.72011713 191.90322003 146.4375 199.625 C141.30621402 208.87593606 136.1288365 218.09905816 130.91162109 227.30175781 C126.11250644 235.77731882 121.3824394 244.29050355 116.65844727 252.80810547 C109.56863639 265.58888978 102.41943608 278.33620601 95.27050781 291.08398438 C93.534084 294.18075374 91.79811386 297.27777662 90.0625 300.375 C89.20108398 301.91220703 89.20108398 301.91220703 88.32226562 303.48046875 C84.00839397 311.18484154 79.72011713 318.90322003 75.4375 326.625 C70.82702276 334.93699632 66.1876305 343.2312705 61.5 351.5 C56.19695193 360.85583031 50.94742807 370.24039003 45.74414062 379.65209961 C42.51917006 385.48342216 39.26849293 391.29731158 35.9609375 397.08203125 C25.03763794 416.23630173 17.78474247 434.10446899 12.609375 455.50927734 C12.10993969 457.55063913 11.57547713 459.58340184 11.03125 461.61328125 C-2.50122495 513.78097218 12.31247613 566.90909851 38.640625 612.171875 C42.46614068 618.76711888 46.14068162 625.4435793 49.8125 632.125 C50.49528504 633.36609015 51.17814663 634.60713819 51.86108398 635.84814453 C52.89016164 637.71816999 53.91921734 639.58820731 54.94798279 641.45840454 C63.79982664 657.54517526 72.7538022 673.57545336 81.7331543 689.59130859 C89.1601569 702.84420839 96.52436012 716.13199984 103.89550781 729.41601562 C110.57678217 741.45540326 117.26633127 753.48982161 124 765.5 C132.00735722 779.78193046 139.95114818 794.09897802 147.89550781 808.41601562 C158.02593563 826.67063903 168.20462573 844.89758835 178.42578125 863.1015625 C184.65997557 874.21111441 190.85396136 885.34152006 197 896.5 C203.77651192 908.79862086 210.56006268 921.09299492 217.47949219 933.31201172 C218.45572455 935.03781748 219.42807343 936.76582905 220.39550781 938.49658203 C221.60333653 940.6522523 222.8290203 942.79643529 224.0625 944.9375 C224.71347656 946.08089844 225.36445313 947.22429688 226.03515625 948.40234375 C228.32351939 951.4277145 229.41419139 951.92191776 233 953 C235.51530327 953.18895969 237.91841853 953.27877865 240.43185425 953.26742554 C241.17127199 953.27195665 241.91068974 953.27648776 242.67251408 953.28115618 C245.14616048 953.29379867 247.61958662 953.29217981 250.09326172 953.29052734 C251.86946902 953.29651349 253.64567372 953.30331923 255.421875 953.31088257 C260.24942945 953.32856071 265.07691298 953.33323927 269.90449667 953.33451414 C272.92976838 953.33593754 275.9550222 953.34021116 278.98028946 953.34550858 C289.5625548 953.36402878 300.14476977 953.37217843 310.72705078 953.37060547 C320.5407694 953.36940992 330.354266 953.39039121 340.16792858 953.4220928 C348.62438025 953.44842121 357.0807603 953.45896559 365.53725255 953.45769465 C370.57324269 953.45718899 375.6090364 953.46264684 380.6449852 953.48405075 C402.96681033 953.57239311 424.33145327 953.46754829 446 947.375 C451.59514697 945.85643326 457.17883158 945.49474187 462.9375 945.0625 C479.85544348 943.76873447 495.98725312 940.58877677 512 935 C512.80453613 934.72704102 513.60907227 934.45408203 514.43798828 934.17285156 C528.54922854 929.37094427 542.02521294 923.54665709 555.46484375 917.10986328 C558.26096491 915.88575246 561.0930268 914.92614812 564 914 C564.4532666 914.80107178 564.9065332 915.60214355 565.37353516 916.42749023 C567.0817741 919.44270833 568.79306488 922.45615294 570.50634766 925.46850586 C571.24257428 926.76437398 571.97763251 928.06090672 572.71142578 929.3581543 C576.1212774 935.38470652 579.53837935 941.41400387 583.2109375 947.28515625 C583.6342334 947.96586182 584.0575293 948.64656738 584.49365234 949.34790039 C586.95632651 952.04885923 589.88752299 952.88678503 593.47472763 953.251849 C594.35106983 953.25271577 595.22741203 953.25358255 596.13031006 953.25447559 C597.14736652 953.26030779 598.16442299 953.26613998 599.21229935 953.27214891 C600.32269955 953.26836958 601.43309975 953.26459026 602.57714844 953.26069641 C603.76212292 953.26452196 604.9470974 953.26834751 606.16798019 953.27228898 C609.45353304 953.28082314 612.7389432 953.28038497 616.02449989 953.27610838 C619.5692017 953.27364279 623.11387716 953.28265318 626.65856934 953.29014587 C633.60121356 953.30289897 640.54381912 953.30468585 647.48647308 953.30234561 C653.1284783 953.30056318 658.77047177 953.30231047 664.41247559 953.30657005 C665.61657613 953.30746284 665.61657613 953.30746284 666.84500194 953.30837366 C668.47569561 953.30958539 670.10638929 953.31079953 671.73708296 953.31201603 C687.03122213 953.32289366 702.32533925 953.32072786 717.61947966 953.31463119 C731.61584151 953.3094603 745.6121338 953.3207216 759.60848188 953.33972941 C773.97677859 953.35909294 788.34504236 953.36736652 802.7133522 953.36360615 C810.78137756 953.36169205 818.84934368 953.36420215 826.9173584 953.37832069 C833.78470326 953.39021647 840.65195242 953.39165963 847.51929855 953.37953053 C851.02372608 953.37362945 854.52797841 953.37257612 858.03239441 953.38453293 C861.82937764 953.39492892 865.62588586 953.38695683 869.42285156 953.3742218 C870.53325176 953.38159609 871.64365196 953.38897037 872.78770065 953.39656812 C879.92456783 953.44822422 879.92456783 953.44822422 886 950 C886.40984131 949.2776416 886.81968262 948.5552832 887.24194336 947.81103516 C889 946 889 946 890.81033325 945.73895264 C893.26130203 945.73982588 895.6828593 945.86846078 898.12890625 946.0234375 C899.98751145 946.07719312 901.84624875 946.12652867 903.70507812 946.171875 C906.63091288 946.2600542 909.54506152 946.3738563 912.46606445 946.56542969 C921.91806779 947.21423799 921.91806779 947.21423799 931 945 C935.61013699 940.79394125 937.82786758 934.94919205 940.07937622 929.25244141 C941.30543668 926.25270427 942.8701408 923.51293787 944.51171875 920.72265625 C945.03386963 919.79179199 945.55602051 918.86092773 946.09399414 917.90185547 C946.61985107 916.96486816 947.14570801 916.02788086 947.6875 915.0625 C952.66860989 906.17921106 957.62338317 897.28169798 962.5625 888.375 C967.17292402 880.06297447 971.81236979 871.76872899 976.5 863.5 C983.74844812 850.71202414 990.87434613 837.85668436 998 825 C1005.64550939 811.20535004 1013.30712471 797.4218761 1021.08642578 783.70214844 C1025.26493513 776.3238108 1029.38918967 768.91623742 1033.5 761.5 C1038.13065931 753.14591259 1042.7887252 744.80889646 1047.5 736.5 C1054.74856018 723.71208879 1061.87434694 710.85668289 1069 698 C1076.64630664 684.20391156 1084.30960501 670.4195257 1092.08862305 656.69775391 C1096.88351189 648.22982684 1101.61050921 639.72489868 1106.32836914 631.21386719 C1110.07601301 624.45523372 1113.84219498 617.70752667 1117.62890625 610.97070312 C1119.9335574 606.86663213 1122.22742354 602.75659445 1124.51953125 598.64550781 C1125.80483136 596.34875451 1127.10335225 594.06022452 1128.40625 591.7734375 C1133.76344916 582.23764786 1137.47947272 572.3308048 1141 562 C1141.39058594 560.90300781 1141.78117187 559.80601562 1142.18359375 558.67578125 C1145.63723731 548.39548039 1147.28963193 537.68091281 1149 527 C1149.12149414 526.26265625 1149.24298828 525.5253125 1149.36816406 524.765625 C1156.90956863 477.58119525 1143.14283925 434.70877684 1119.87353516 394.27539062 C1116.71597611 388.75521704 1113.6424269 383.18873893 1110.5625 377.625 C1109.30489638 375.35925905 1108.04708313 373.09363444 1106.7890625 370.828125 C1104.89409631 367.41347216 1102.99929432 363.99872825 1101.10449219 360.58398438 C1094.42321783 348.54459674 1087.73366873 336.51017839 1081 324.5 C1072.99264278 310.21806954 1065.04885182 295.90102198 1057.10449219 281.58398438 C1050.42321783 269.54459674 1043.73366873 257.51017839 1037 245.5 C1030.26472928 233.48696432 1023.57383214 221.4495583 1016.89111328 209.40722656 C1013.1396778 202.64824985 1009.384579 195.89130741 1005.62963867 189.13427734 C1002.47707703 183.46073548 999.32647497 177.78612177 996.1796875 172.109375 C990.34706716 161.59168202 984.49738889 151.08537931 978.5625 140.625 C973.68935132 132.03310676 968.89024528 123.40202 964.125 114.75 C963.79048828 114.14285156 963.45597656 113.53570312 963.11132812 112.91015625 C961.41783882 109.83642421 959.72474716 106.76247324 958.03173828 103.68847656 C957.35451439 102.45897214 956.67726832 101.22947994 956 100 C955.66490417 99.39168335 955.32980835 98.7833667 954.98455811 98.15661621 C952.68149484 93.97702916 950.37288828 89.80054241 948.0625 85.625 C947.1955249 84.05057129 947.1955249 84.05057129 946.31103516 82.44433594 C945.16822156 80.38147434 944.00038033 78.33228222 942.80810547 76.29760742 C941.45086497 73.82228372 940.36339688 71.51018165 939.30517578 68.9152832 C937.46405196 64.74660029 935.65350531 60.86102019 932 58 C925.27619549 55.61849125 917.74424064 56.53552538 910.75 56.9375 C907.86589842 57.0543384 904.98401614 57.14922626 902.09820557 57.21107483 C900.310655 57.25432652 898.52351223 57.33162352 896.73919678 57.44749451 C890.77402036 57.65956351 890.77402036 57.65956351 888.45031738 55.67947388 C887.25230731 54.15613279 886.12296791 52.57947437 885 51 C881.40247683 49.53750792 877.45369405 49.84884124 873.62593079 49.84609985 C872.50795185 49.83952647 872.50795185 49.83952647 871.36738747 49.8328203 C868.86772512 49.81945782 866.36809801 49.81325875 863.8684082 49.80712891 C862.07589053 49.79922486 860.28337443 49.79095572 858.49085999 49.78234863 C852.59418251 49.75612627 846.69749802 49.74080378 840.80078125 49.7265625 C838.76322107 49.7211997 836.72566092 49.71582218 834.68810081 49.71043015 C826.19627783 49.68878601 817.70445671 49.67005962 809.21261311 49.65880775 C797.09540522 49.64264246 784.97852181 49.60966445 772.86143619 49.55240691 C764.31751127 49.51343409 755.77367204 49.49414207 747.22966069 49.48888719 C742.14210332 49.485266 737.05489191 49.47359816 731.96743202 49.44078445 C710.75726637 49.31076228 690.60879268 49.32530312 670 55 C668.95642145 55.27774387 667.9128429 55.55548775 666.83764076 55.8416481 C644.87977878 61.7044345 624.57518037 69.88804904 604.30639648 80.07226562 C603.32733337 80.55934998 603.32733337 80.55934998 602.32849121 81.05627441 C600.53806937 81.94796747 598.75216182 82.84870812 596.96655273 83.75 C594 85 594 85 590 85 C589.58637207 84.25314941 589.17274414 83.50629883 588.74658203 82.73681641 C587.20989097 79.96593933 585.67018648 77.19676557 584.12841797 74.42871094 C583.46183978 73.23049204 582.79646586 72.03160238 582.13232422 70.83203125 C581.17732784 69.10761328 580.21763199 67.38580056 579.2578125 65.6640625 C578.6817627 64.62717285 578.10571289 63.5902832 577.51220703 62.52197266 C576.10413229 59.9422577 576.10413229 59.9422577 574 58 C572.10203262 57.70896291 572.10203262 57.70896291 569.91748047 57.77294922 C569.07675995 57.77310028 568.23603943 57.77325134 567.36984253 57.77340698 C566.00727829 57.78889084 566.00727829 57.78889084 564.6171875 57.8046875 C563.68778351 57.8075174 562.75837952 57.81034729 561.80081177 57.81326294 C558.8254115 57.82447931 555.85030965 57.8495864 552.875 57.875 C550.86068142 57.88502792 548.84635814 57.8941541 546.83203125 57.90234375 C541.88790544 57.92442339 536.94400335 57.95896307 532 58 C531.773125 57.4225 531.54625 56.845 531.3125 56.25 C529.49339853 53.13154034 528.14211552 51.8896192 525 50 C521.13210681 49.39750188 517.29259065 49.4651108 513.3848877 49.49879456 C511.60130065 49.49049296 511.60130065 49.49049296 509.78168154 49.48202366 C506.48444306 49.47076389 503.18812535 49.47745226 499.89095712 49.49176037 C496.33397332 49.5028636 492.77705685 49.49092974 489.22007751 49.48191833 C482.25331621 49.46797938 475.28673605 49.47554682 468.31998336 49.49059392 C460.20844915 49.50744722 452.09696016 49.50424461 443.98541385 49.50049984 C429.51318849 49.49462006 415.0410501 49.50879743 400.56884766 49.53344727 C386.52291605 49.55736839 372.47710066 49.56445168 358.43115234 49.55395508 C343.13931034 49.5425479 327.8475221 49.54061332 312.55568075 49.55505317 C310.9253397 49.55657903 309.29499865 49.55809938 307.66465759 49.55961418 C306.46139121 49.5607509 306.46139121 49.5607509 305.23381642 49.56191059 C299.578482 49.56665497 293.92317158 49.56480089 288.26783752 49.56054878 C281.37669053 49.55562404 274.48565346 49.56159786 267.59453166 49.58144308 C264.07796195 49.59132038 260.56155967 49.59641558 257.044981 49.58855057 C253.23491814 49.58020346 249.42514997 49.59506334 245.6151123 49.61231995 C244.50082116 49.6063099 243.38653001 49.60029986 242.23847246 49.59410769 C235.98485522 49.64582557 231.68129064 49.84083517 227.41235352 54.87060547 Z " fill="#FEFEFE" transform="translate(0,0)"/>
<path d="M0 0 C3.875 2.625 3.875 2.625 5 6 C6.2065625 7.2065625 6.2065625 7.2065625 7.4375 8.4375 C9.75122784 10.75122784 10.59081712 12.18163424 12 15 C12.825 15.825 13.65 16.65 14.5 17.5 C16.77458204 19.77458204 17.61067124 21.22134249 19 24 C19.825 24.825 20.65 25.65 21.5 26.5 C23.77458204 28.77458204 24.61067124 30.22134249 26 33 C26.825 33.825 27.65 34.65 28.5 35.5 C30.77458204 37.77458204 31.61067124 39.22134249 33 42 C33.78375 42.78375 34.5675 43.5675 35.375 44.375 C38 47 38 47 39.8125 49.8125 C42.26029104 53.37928123 45.08273691 56.11171326 48.17578125 59.11328125 C50.21881118 61.22630792 51.57666092 63.43798966 53 66 C53.66 66.66 54.32 67.32 55 68 C57.16070464 70.16070464 58.43303362 72.38838937 60 75 C60.66 75.66 61.32 76.32 62 77 C65.4977148 80.4977148 67.56217124 84.04616493 68 89 C66.8828125 91.7253418 66.8828125 91.7253418 65.125 94.69921875 C64.47724609 95.81232422 63.82949219 96.92542969 63.16210938 98.07226562 C62.44157651 99.27744556 61.72086868 100.4825209 61 101.6875 C60.26222333 102.94511487 59.52591575 104.20359265 58.79101562 105.46289062 C57.27647129 108.05412349 55.75461855 110.64083393 54.2265625 113.22412109 C50.93825658 118.78942309 47.72285258 124.39663623 44.5 130 C43.25930372 132.14854673 42.01841682 134.2969834 40.77734375 136.4453125 C34.82295539 146.76666572 28.9219471 157.11859455 23.01611328 167.46777344 C20.01266824 172.7304792 17.00570035 177.99117186 13.99899292 183.25201416 C12.33251718 186.16792672 10.66627018 189.08396998 9 192 C8.33333443 193.16666729 7.66666776 194.33333396 7 195.5 C6.67 196.0775 6.34 196.655 6 197.25 C-29.00000001 258.50000002 -29.00000001 258.50000002 -29.99998474 260.24996948 C-30.66670665 261.41673537 -31.33342418 262.58350376 -32.00013733 263.75027466 C-33.66592284 266.66544378 -35.33178427 269.58056947 -36.99780273 272.49560547 C-40.00838842 277.7634062 -43.01841542 283.03152218 -46.02561951 288.30125427 C-47.70420458 291.24271702 -49.38323438 294.18392572 -51.0625 297.125 C-51.39311432 297.70406097 -51.72372864 298.28312195 -52.06436157 298.87973022 C-56.28944129 306.27797423 -60.53271549 313.66546038 -64.796875 321.04125977 C-67.26796319 325.31684224 -69.73206838 329.59643337 -72.19628906 333.87597656 C-73.99549539 336.99219802 -75.80623603 340.10153088 -77.6171875 343.2109375 C-85.34628251 356.56129059 -91.52840786 369.44590009 -95.8125 384.3125 C-96.02003906 385.02962158 -96.22757812 385.74674316 -96.44140625 386.4855957 C-108.50171198 430.8713915 -89.93121396 472.76551778 -68.91796875 510.7109375 C-63.13443842 521.15527916 -57.5899644 531.72876275 -52.3125 542.4375 C-48.71019916 549.73655454 -44.8615189 556.89805287 -41 564.0625 C-35.45885995 574.3436641 -30.0284502 584.67591956 -24.6875 595.0625 C-24.17692551 596.05500763 -24.17692551 596.05500763 -23.65603638 597.06756592 C-22.32803664 599.64908554 -21.00010817 602.23064177 -19.67247009 604.81234741 C-14.41948373 615.02206853 -9.06189127 625.17435343 -3.62109375 635.28515625 C-2.37220673 637.60666941 -1.12346225 639.92825845 0.125 642.25 C0.59857941 643.13034409 0.59857941 643.13034409 1.08172607 644.0284729 C6.5726839 654.24434198 11.90940929 664.53474218 17.20269775 674.85415649 C21.99669137 684.19485871 26.92282806 693.4482408 31.99169922 702.64355469 C35.03539654 708.18077057 37.92838666 713.76500445 40.69970703 719.44262695 C42.95377798 724.0148903 45.33266545 728.5144028 47.75390625 733 C48.0903566 733.6238559 48.42680695 734.24771179 48.77345276 734.89047241 C50.47440757 738.04110548 52.18203045 741.18792624 53.89770508 744.33056641 C54.53349297 745.50416293 55.16915891 746.67782553 55.8046875 747.8515625 C56.37171387 748.89135254 56.93874023 749.93114258 57.52294922 751.00244141 C58.97795732 753.95526611 59.99061619 756.87220999 61 760 C70.97246627 760.03174476 80.94413758 760.02494527 90.91653156 759.97153378 C95.54931549 759.94787651 100.18138731 759.93654167 104.81420898 759.95532227 C109.30159678 759.97302727 113.7877183 759.95581423 118.27495384 759.91632271 C119.97016416 759.90716727 121.66548764 759.9097198 123.36065102 759.92530632 C139.81254863 760.06163584 154.3159989 755.43572598 168.5 747.0625 C169.2415332 746.63630371 169.98306641 746.21010742 170.74707031 745.77099609 C178.19130545 741.42500548 185.1469408 736.69281145 191.4609375 730.80078125 C192.0684082 730.24567871 192.67587891 729.69057617 193.30175781 729.11865234 C194.48673299 728.02602526 195.65175448 726.9112084 196.79199219 725.77197266 C199.24235026 723.51049334 200.93512458 722.11572044 204.31176758 721.7487793 C207.87217002 721.99366322 210.24785352 722.39628471 213.05859375 724.65234375 C213.51363281 725.40644531 213.96867187 726.16054688 214.4375 726.9375 C214.9840625 727.82050781 215.530625 728.70351563 216.09375 729.61328125 C216.7228125 730.73089844 217.351875 731.84851563 218 733 C218.42023438 733.73782715 218.84046875 734.4756543 219.2734375 735.23583984 C222.24279201 740.45842275 225.13978339 745.71694397 228 751 C231.96 748.525 231.96 748.525 236 746 C234.6027689 742.30186644 232.93435305 738.90404002 231.015625 735.44921875 C230.41741943 734.37075684 229.81921387 733.29229492 229.20288086 732.18115234 C228.55215348 731.0164714 227.90118697 729.85192404 227.25 728.6875 C226.91775421 728.09108704 226.58550842 727.49467407 226.24319458 726.88018799 C221.01251873 717.49192357 215.64806942 708.18787507 210.20214844 698.92260742 C206.04262769 691.83166502 201.99722806 684.68353735 198 677.5 C193.424336 669.2779741 188.76429252 661.1141857 184 653 C178.62803207 643.85086711 173.40923475 634.62596869 168.25 625.35546875 C164.25035548 618.18646305 160.15651956 611.07907237 156 604 C150.62803207 594.85086711 145.40923475 585.62596869 140.25 576.35546875 C136.25035548 569.18646305 132.15651956 562.07907237 128 555 C122.62803207 545.85086711 117.40923475 536.62596869 112.25 527.35546875 C108.25035461 520.1864615 104.15646473 513.07910595 100 506 C94.49607246 496.62460023 89.11967863 487.18476958 83.85229492 477.67431641 C81.45520463 473.35030135 79.06465258 469.04024149 76.44921875 464.84375 C71.37436617 456.66011906 69.22298634 449.49077829 68 440 C67.9079126 439.37327393 67.8158252 438.74654785 67.72094727 438.10083008 C66.80587836 431.23011339 66.81389256 424.33790184 66.81469727 417.41821289 C66.81252237 415.33393554 66.79433998 413.25019908 66.77539062 411.16601562 C66.60902836 372.47490653 81.90142796 339.82262349 108 312 C109 311 109 311 112.6875 310.4375 C115.24510749 310.49530063 116.52134466 310.56910496 118.44360352 312.29956055 C123.23608014 319.01902889 127.23150351 326.17870432 131.25 333.375 C132.32797859 335.29927366 133.40760326 337.22256307 134.4911499 339.14370728 C135.46444632 340.87015595 136.43208917 342.59978827 137.39941406 344.32958984 C138.87543862 347.03742475 138.87543862 347.03742475 141 349 C141.4846875 348.17757813 141.969375 347.35515625 142.46875 346.5078125 C146.8498015 339.21167673 151.49034218 332.51141379 157 326 C157.58265625 325.28328125 158.1653125 324.5665625 158.765625 323.828125 C160.12690306 322.17608851 161.55663787 320.58082519 163 319 C163.66 319 164.32 319 165 319 C165.55945313 320.0209375 166.11890625 321.041875 166.6953125 322.09375 C172.21296423 332.11634963 177.90074056 342.02890575 183.68408203 351.90039062 C187.49642593 358.41112862 191.26874833 364.94247842 195 371.5 C199.2853868 379.0284403 203.62622918 386.52257085 208 394 C212.87088859 402.32730517 217.68833344 410.68244672 222.4609375 419.06640625 C226.26384049 425.73657737 230.12335296 432.37245714 234 439 C238.87088859 447.32730517 243.68833344 455.68244672 248.4609375 464.06640625 C252.26384049 470.73657737 256.12335296 477.37245714 260 484 C264.87088859 492.32730517 269.68833344 500.68244672 274.4609375 509.06640625 C278.26384049 515.73657737 282.12335296 522.37245714 286 529 C290.87088859 537.32730517 295.68833344 545.68244672 300.4609375 554.06640625 C304.26384049 560.73657737 308.12335296 567.37245714 312 574 C316.87088859 582.32730517 321.68833344 590.68244672 326.4609375 599.06640625 C330.26384049 605.73657737 334.12335296 612.37245714 338 619 C342.87088859 627.32730517 347.68833344 635.68244672 352.4609375 644.06640625 C356.26384049 650.73657737 360.12335296 657.37245714 364 664 C368.37377209 671.47743133 372.71444633 678.97165347 377 686.5 C381.7728261 694.88415881 386.62311046 703.220785 391.49682617 711.54663086 C396.50617199 720.1194603 401.43128908 728.73880197 406.34020996 737.36935425 C410.96445587 745.49712454 415.67235352 753.55645177 420.59375 761.5078125 C422 764 422 764 422 766 C422.89913777 765.99723462 423.79827555 765.99446924 424.72465992 765.99162006 C446.58177381 765.92542671 468.43887047 765.87575184 490.29606342 765.84456348 C500.86595059 765.82908095 511.43577095 765.80796498 522.00561523 765.77368164 C531.21606638 765.74382169 540.42646915 765.72443509 549.63696736 765.71773452 C554.51588026 765.71381647 559.39465472 765.70457985 564.27352333 765.68280983 C568.86254208 765.6624984 573.45136492 765.65615533 578.04042435 765.66067696 C579.72752254 765.65984935 581.41462706 765.65385194 583.10168648 765.64238358 C585.39988745 765.62752273 587.69734253 765.63102244 589.99555969 765.63923645 C591.28330449 765.63647107 592.57104929 765.63370569 593.89781666 765.63085651 C597 766 597 766 598.93777752 767.39754772 C600 769 600 769 600 771 C600.66 771 601.32 771 602 771 C604.17204 773.96187272 605.83561997 776.50685991 607 780 C607.66 780 608.32 780 609 780 C611.17204 782.96187272 612.83561997 785.50685991 614 789 C614.66 789 615.32 789 616 789 C618.17204 791.96187272 619.83561997 794.50685991 621 798 C621.66 798 622.32 798 623 798 C625.17204 800.96187272 626.83561997 803.50685991 628 807 C628.66 807 629.32 807 630 807 C632.17204 809.96187272 633.83561997 812.50685991 635 816 C635.66 816 636.32 816 637 816 C639.17204 818.96187272 640.83561997 821.50685991 642 825 C642.66 825 643.32 825 644 825 C646.17204 827.96187272 647.83561997 830.50685991 649 834 C649.66 834 650.32 834 651 834 C653.17204 836.96187272 654.83561997 839.50685991 656 843 C656.66 843 657.32 843 658 843 C660.57844219 846.4647817 662.90751276 849.80747306 664 854 C662.74742252 859.43777982 660.50805144 864.50492769 656 868 C649.32069938 870.31625073 641.75243949 869.36626974 634.8125 869 C631.92162513 868.8906559 629.03297162 868.80182125 626.14054871 868.74658203 C624.3475668 868.70800507 622.55490665 868.63620826 620.7648468 868.52685547 C616.25032597 868.28636814 616.25032597 868.28636814 612.41293335 870.32275391 C611.20436011 871.82752046 610.09635151 873.41160929 609 875 C606.0610413 875.9796529 604.17710781 876.12617582 601.1157856 876.12863445 C600.10271123 876.1318589 599.08963686 876.13508335 598.04586327 876.1384055 C596.37152445 876.1360826 596.37152445 876.1360826 594.6633606 876.13371277 C593.48009497 876.13597833 592.29682934 876.13824388 591.07770717 876.14057809 C587.78766384 876.14582497 584.49767502 876.14656099 581.20763135 876.14538372 C577.66153904 876.14518003 574.11545495 876.15069536 570.56936646 876.15544128 C563.61977212 876.16375548 556.67018627 876.16649647 549.72058739 876.16705366 C544.07281666 876.16752846 538.42504874 876.16958141 532.7772789 876.17275429 C516.772447 876.18156299 500.76762182 876.18617333 484.76278748 876.18542381 C483.89956859 876.18538386 483.0363497 876.1853439 482.14697266 876.18530273 C481.28270243 876.18526185 480.4184322 876.18522097 479.52797197 876.18517885 C465.51856614 876.18477233 451.50918719 876.19434288 437.49978913 876.2084411 C423.12252032 876.22279561 408.74526463 876.22971179 394.36798847 876.22884732 C386.29323815 876.22851503 378.218516 876.23127619 370.14377213 876.24202538 C363.26907819 876.25111822 356.39442518 876.25331566 349.51972784 876.24651595 C346.01129726 876.24324457 342.50294527 876.24321626 338.99452209 876.2518692 C335.19318029 876.26114826 331.39195404 876.25497429 327.59060669 876.24723816 C325.92296003 876.2549535 325.92296003 876.2549535 324.22162354 876.26282471 C323.20333368 876.25822592 322.18504381 876.25362712 321.13589668 876.24888897 C319.81975716 876.24921502 319.81975716 876.24921502 318.47702897 876.24954766 C314.84165096 875.88330242 311.9342374 875.03427103 309.45410156 872.28857422 C308.80393066 871.24467529 308.80393066 871.24467529 308.140625 870.1796875 C307.63724609 869.37499023 307.13386719 868.57029297 306.61523438 867.74121094 C303.57513352 862.58186202 300.6414891 857.36888701 297.75 852.125 C296.51666468 849.89786143 295.28233608 847.67127255 294.046875 845.4453125 C293.50901367 844.47094238 292.97115234 843.49657227 292.41699219 842.49267578 C291.35137938 840.61812259 290.19608082 838.79412123 289 837 C284.23393362 838.46080672 279.84203831 840.44285943 275.375 842.625 C266.49139994 846.88101014 257.4320438 850.59351787 248.2421875 854.13330078 C246.32252848 854.87532926 244.41043869 855.63688896 242.5 856.40234375 C234.99906783 859.27953955 227.35905512 861.27816319 219.5625 863.1875 C218.04426636 863.56285889 218.04426636 863.56285889 216.49536133 863.94580078 C202.16300491 867.3349694 188.30944381 868.30237444 173.65356445 868.30639648 C171.86475791 868.3140375 170.0759546 868.32246824 168.28715515 868.33161926 C163.47800426 868.3533519 158.66891679 868.36233161 153.85972238 868.36744571 C150.85163083 868.37110793 147.8435555 868.37735682 144.8354702 868.3844471 C134.33342136 868.40884611 123.83142143 868.42197734 113.3293457 868.42553711 C103.54680782 868.4291878 93.76458064 868.45921662 83.98213798 868.50094169 C75.56484665 868.53558377 67.14765896 868.55108431 58.73029679 868.55178314 C53.71009996 868.55257659 48.69022221 868.56135034 43.67009926 868.58978081 C38.96091459 868.61586439 34.25231637 868.61822148 29.54309273 868.60212517 C27.81447322 868.60030422 26.08582059 868.60705938 24.3572731 868.62294388 C22.00064861 868.64328499 19.64610095 868.63292703 17.289505 868.61473083 C15.97054387 868.61674216 14.65158274 868.61875349 13.29265308 868.62082577 C10 868 10 868 7.63034344 865.65689182 C6.12535534 863.20428554 4.98195255 860.77834919 3.92578125 858.10546875 C2.28893092 854.38284288 0.21091963 850.89030835 -1.79296875 847.35546875 C-3 845 -3 845 -3 843 C-3.66 843 -4.32 843 -5 843 C-5.99 840.03 -6.98 837.06 -8 834 C-8.66 834 -9.32 834 -10 834 C-10.40089844 833.175 -10.80179688 832.35 -11.21484375 831.5 C-15.48544652 822.82321976 -20.07697323 814.38222027 -24.86914062 805.98388672 C-26.63202063 802.89123496 -28.37945904 799.78996277 -30.125 796.6875 C-30.48134521 796.05457031 -30.83769043 795.42164063 -31.20483398 794.76953125 C-38.42517635 781.92519635 -45.54842403 769.02593123 -52.6953125 756.140625 C-57.93141327 746.70354071 -63.19947359 737.28469365 -68.47680664 727.87060547 C-72.83573707 720.09027501 -77.17276504 712.2979971 -81.5 704.5 C-86.31503737 695.82299841 -91.14636306 687.15546993 -96 678.5 C-101.49021916 668.70931572 -106.94797527 658.90096828 -112.39453125 649.0859375 C-116.57950485 641.5477863 -120.78300435 634.02027917 -125 626.5 C-133.00746117 612.2181283 -140.95114852 597.90102136 -148.89550781 583.58398438 C-155.59934711 571.50393564 -162.31111071 559.42855223 -169.0625 547.375 C-169.6304126 546.36002441 -170.1983252 545.34504883 -170.78344727 544.29931641 C-173.76731745 538.97009969 -176.7638262 533.64845111 -179.77734375 528.3359375 C-180.4005249 527.23330566 -181.02370605 526.13067383 -181.66577148 524.99462891 C-182.84208616 522.91380607 -184.02224822 520.83515077 -185.20727539 518.75927734 C-191.22125072 508.10225826 -196.26801294 497.18077409 -200.125 485.5625 C-200.464104 484.54260986 -200.80320801 483.52271973 -201.15258789 482.47192383 C-206.87518442 464.62166061 -209.21112355 446.32672908 -209.125 427.625 C-209.12016602 426.51793701 -209.11533203 425.41087402 -209.11035156 424.27026367 C-208.84125601 387.75130665 -198.6603763 354.01290232 -180.44238281 322.51123047 C-178.25087109 318.69574475 -176.11341699 314.8504457 -173.9699707 311.0078125 C-169.40902702 302.8317228 -164.81926006 294.67222042 -160.20068359 286.52856445 C-154.4075509 276.31293955 -148.70063149 266.05226313 -143.03817749 255.76385498 C-137.80649379 246.2586497 -132.53202483 236.77867411 -127.22119141 227.31738281 C-122.93707028 219.68253206 -118.68283164 212.03147761 -114.4375 204.375 C-109.30632443 195.12400336 -104.1288359 185.90094079 -98.91162109 176.69824219 C-94.11170094 168.22125863 -89.38058073 159.70678492 -84.65625 151.1875 C-80.45581759 143.6146465 -76.2360587 136.05297823 -72 128.5 C-67.14629968 119.84456546 -62.31509209 111.17697096 -57.5 102.5 C-49.79514009 88.61713669 -42.03676451 74.76459758 -34.27050781 60.91601562 C-32.53408401 57.81924628 -30.79814429 54.7222063 -29.0625 51.625 C-28.49257324 50.60817139 -27.92264648 49.59134277 -27.33544922 48.54370117 C-24.22238331 42.98477958 -21.12000919 37.42010831 -18.03125 31.84765625 C-17.69894882 31.24838318 -17.36664764 30.64911011 -17.02427673 30.03167725 C-15.42652772 27.14989884 -13.8302983 24.26730775 -12.23657227 21.38330078 C-8.25543416 14.19686436 -4.16835649 7.07946369 0 0 Z " fill="#C90000" transform="translate(275,77)"/>
<path d="M0 0 C0.66 0 1.32 0 2 0 C2.55945313 1.0209375 3.11890625 2.041875 3.6953125 3.09375 C9.21296423 13.11634963 14.90074056 23.02890575 20.68408203 32.90039062 C24.49642593 39.41112862 28.26874833 45.94247842 32 52.5 C36.2853868 60.0284403 40.62622918 67.52257085 45 75 C49.87088859 83.32730517 54.68833344 91.68244672 59.4609375 100.06640625 C63.26384049 106.73657737 67.12335296 113.37245714 71 120 C75.87088859 128.32730517 80.68833344 136.68244672 85.4609375 145.06640625 C89.26384049 151.73657737 93.12335296 158.37245714 97 165 C101.87088859 173.32730517 106.68833344 181.68244672 111.4609375 190.06640625 C115.26384049 196.73657737 119.12335296 203.37245714 123 210 C127.87088859 218.32730517 132.68833344 226.68244672 137.4609375 235.06640625 C141.26384049 241.73657737 145.12335296 248.37245714 149 255 C153.87088859 263.32730517 158.68833344 271.68244672 163.4609375 280.06640625 C167.26384049 286.73657737 171.12335296 293.37245714 175 300 C179.87088859 308.32730517 184.68833344 316.68244672 189.4609375 325.06640625 C193.26384049 331.73657737 197.12335296 338.37245714 201 345 C205.37377209 352.47743133 209.71444633 359.97165347 214 367.5 C218.7728261 375.88415881 223.62311046 384.220785 228.49682617 392.54663086 C233.50617199 401.1194603 238.43128908 409.73880197 243.34020996 418.36935425 C247.96445587 426.49712454 252.67235352 434.55645177 257.59375 442.5078125 C259 445 259 445 259 447 C259.89913777 446.99723462 260.79827555 446.99446924 261.72465992 446.99162006 C283.58177381 446.92542671 305.43887047 446.87575184 327.29606342 446.84456348 C337.86595059 446.82908095 348.43577095 446.80796498 359.00561523 446.77368164 C368.21606638 446.74382169 377.42646915 446.72443509 386.63696736 446.71773452 C391.51588026 446.71381647 396.39465472 446.70457985 401.27352333 446.68280983 C405.86254208 446.6624984 410.45136492 446.65615533 415.04042435 446.66067696 C416.72752254 446.65984935 418.41462706 446.65385194 420.10168648 446.64238358 C422.39988745 446.62752273 424.69734253 446.63102244 426.99555969 446.63923645 C428.28330449 446.63647107 429.57104929 446.63370569 430.89781666 446.63085651 C434 447 434 447 435.93777752 448.39754772 C437 450 437 450 437 452 C437.66 452 438.32 452 439 452 C441.17204 454.96187272 442.83561997 457.50685991 444 461 C444.66 461 445.32 461 446 461 C448.17204 463.96187272 449.83561997 466.50685991 451 470 C451.66 470 452.32 470 453 470 C455.17204 472.96187272 456.83561997 475.50685991 458 479 C458.66 479 459.32 479 460 479 C462.17204 481.96187272 463.83561997 484.50685991 465 488 C465.66 488 466.32 488 467 488 C469.17204 490.96187272 470.83561997 493.50685991 472 497 C472.66 497 473.32 497 474 497 C476.17204 499.96187272 477.83561997 502.50685991 479 506 C479.66 506 480.32 506 481 506 C483.17204 508.96187272 484.83561997 511.50685991 486 515 C486.66 515 487.32 515 488 515 C490.17204 517.96187272 491.83561997 520.50685991 493 524 C493.66 524 494.32 524 495 524 C497.69115085 527.61623395 499.30885514 530.77213785 501 535 C498.36 539.62 495.72 544.24 493 549 C397.63 549 302.26 549 204 549 C199.38 540.75 194.76 532.5 190 524 C184.75681366 515.01163997 184.75681366 515.01163997 179.5 506.03125 C175.32042851 498.8662703 171.29194578 491.61888237 167.25878906 484.37084961 C162.60314229 476.02524414 157.80552757 467.76895815 152.96875 459.52734375 C149.15605646 453.01828586 145.45162873 446.46054598 141.81835938 439.85009766 C138.39686077 433.65243157 134.83308518 427.54288856 131.25 421.4375 C126.40329053 413.17702125 121.65688342 404.86893926 117 396.5 C112.42433156 388.27797601 107.7642927 380.114186 103 372 C97.62803207 362.85086711 92.40923475 353.62596869 87.25 344.35546875 C83.25035548 337.18646305 79.15651956 330.07907237 75 323 C69.62803207 313.85086711 64.40923475 304.62596869 59.25 295.35546875 C55.25035548 288.18646305 51.15651956 281.07907237 47 274 C41.62803207 264.85086711 36.40923475 255.62596869 31.25 246.35546875 C27.25035548 239.18646305 23.15651956 232.07907237 19 225 C13.62803207 215.85086711 8.40923475 206.62596869 3.25 197.35546875 C-0.74964582 190.18646072 -4.84356271 183.07912276 -9 176 C-15.6640612 164.64749388 -22.14318009 153.19493396 -28.50561523 141.6706543 C-29.46938771 139.94827117 -30.45448982 138.23756891 -31.46508789 136.54223633 C-41.84241188 118.93013593 -39.35116384 84.22560484 -34.96484375 64.578125 C-34.64644531 63.39734375 -34.32804687 62.2165625 -34 61 C-33.75854248 60.04963867 -33.75854248 60.04963867 -33.51220703 59.08007812 C-28.31451805 38.92842323 -18.2871289 21.60306094 -5.0625 5.6875 C-4.35311279 4.83212646 -4.35311279 4.83212646 -3.62939453 3.95947266 C-2.46612988 2.59845724 -1.23819259 1.29322338 0 0 Z " fill="#EE0000" transform="translate(438,396)"/>
<path d="M0 0 C1.01532437 -0.00569124 2.03064873 -0.01138248 3.0767405 -0.01724619 C4.19549309 -0.01842606 5.31424569 -0.01960594 6.46689987 -0.02082157 C7.65283792 -0.02590939 8.83877597 -0.03099721 10.06065154 -0.03623921 C13.35822701 -0.04924962 16.65575733 -0.05773018 19.9533484 -0.0642122 C22.78032787 -0.07058243 25.6072892 -0.08065258 28.43425736 -0.09077286 C37.74775591 -0.12409769 47.06126551 -0.1456172 56.37480414 -0.16397271 C58.79956475 -0.16876763 61.22432491 -0.17375095 63.64908504 -0.17877793 C78.70422425 -0.20974633 93.75936729 -0.23643344 108.81452942 -0.25319672 C112.30174135 -0.25714625 115.78895322 -0.26114925 119.27616501 -0.2652216 C120.57626934 -0.26673414 120.57626934 -0.26673414 121.90263841 -0.26827724 C135.94633481 -0.28528778 149.98985512 -0.32640159 164.03346553 -0.37724458 C178.44916199 -0.42900577 192.86476783 -0.45813688 207.28055644 -0.4653936 C215.37560668 -0.47005748 223.47036842 -0.48482562 231.56532669 -0.5251379 C238.45870253 -0.55942468 245.35173782 -0.57338281 252.24519405 -0.56071376 C255.76222109 -0.55488371 259.2785278 -0.55877319 262.7954464 -0.5888834 C266.60947794 -0.62127082 270.42253366 -0.60710724 274.23667526 -0.58844852 C275.34650497 -0.60524345 276.45633467 -0.62203838 277.59979558 -0.63934225 C283.87129505 -0.56253175 287.43129659 0.22728737 291.99177718 4.65759796 C293.10575485 6.1398077 293.10575485 6.1398077 293.10575485 8.1398077 C211.92575485 8.4698077 130.74575485 8.7998077 47.10575485 9.1398077 C38.60961591 21.32063159 38.60961591 21.32063159 39.10575485 29.1398077 C38.11575485 29.1398077 37.12575485 29.1398077 36.10575485 29.1398077 C28.5946334 42.37112898 21.14716021 55.63602601 13.76786423 68.94132137 C6.67681834 81.72429525 -0.47357947 94.47382113 -7.62373734 107.22379208 C-9.36016114 110.32056144 -11.09613129 113.41758432 -12.83174515 116.5148077 C-13.40602249 117.53961239 -13.98029984 118.56441708 -14.57197952 119.62027645 C-18.88585118 127.32464924 -23.17412802 135.04302773 -27.45674515 142.7648077 C-32.58803112 152.01574376 -37.76540865 161.23886586 -42.98262405 170.44156551 C-47.7825442 178.91854907 -52.51366442 187.43302278 -57.23799515 195.9523077 C-62.00959522 204.55490495 -66.81014307 213.14088594 -71.62227249 221.72086239 C-75.92128231 229.39067298 -80.19268623 237.07552113 -84.45674515 244.7648077 C-89.06717276 253.0768312 -93.70661493 261.3710787 -98.39424515 269.6398077 C-104.98882928 281.27421292 -111.48136089 292.96432214 -117.96504593 304.66080379 C-121.20859075 310.51002092 -124.45797046 316.35599427 -127.70674515 322.2023077 C-128.95677239 324.45229257 -130.2067732 326.70229212 -131.45674515 328.9523077 C-137.70674515 340.2023077 -137.70674515 340.2023077 -138.98555374 342.50284481 C-139.7894604 343.95074468 -140.59190873 345.39945536 -141.3927803 346.84903622 C-143.38745421 350.45524285 -145.41013135 354.04110677 -147.48018265 357.60465145 C-171.85376057 399.86220555 -178.92201758 453.37796885 -166.58076859 500.62760067 C-161.73833091 518.3476162 -154.89022843 534.15091744 -145.89424515 550.1398077 C-145.37700882 551.06583797 -144.85977249 551.99186825 -144.32686234 552.94596004 C-141.67413956 557.6895844 -138.99785502 562.41920304 -136.3044014 567.1398077 C-132.66214721 573.53039468 -129.08645004 579.95709767 -125.51924515 586.3898077 C-124.89300247 587.51870419 -124.2667598 588.64760067 -123.62154007 589.81070614 C-122.347945 592.10712311 -121.07458972 594.40367309 -119.80147171 596.70035458 C-116.66931101 602.34882871 -113.53156124 607.99419591 -110.39424515 613.6398077 C-106.90426032 619.92077332 -103.41446789 626.20184406 -99.92775345 632.48462582 C-91.19033463 648.23526967 -91.19033463 648.23526967 -82.37617874 663.94303036 C-78.43607286 670.93213573 -74.55470269 677.95390006 -70.66374588 684.97043514 C-66.29850402 692.8397736 -61.89875395 700.6884772 -57.45674515 708.5148077 C-52.21020666 717.76295709 -47.05869261 727.06156404 -41.93214798 736.37650204 C-36.70260838 745.87778325 -31.42966802 755.3534869 -26.12202835 764.81143856 C-21.77707022 772.55620744 -17.45498773 780.3134657 -13.14424515 788.0773077 C-12.51083206 789.21780575 -11.87741898 790.35830379 -11.22481155 791.53336239 C-8.52913103 796.3885504 -5.8352132 801.24468775 -3.1481514 806.10465145 C1.21160777 813.98384758 5.6287815 821.82653628 10.10575485 829.6398077 C12.10745975 833.13883565 14.10716433 836.63900006 16.10575485 840.1398077 C16.60268845 841.00895809 17.09962204 841.87810848 17.61161423 842.77359676 C19.03333534 845.26677348 20.44587525 847.76492002 21.85575485 850.2648077 C22.28630173 851.01697567 22.7168486 851.76914364 23.16044235 852.54410458 C26.10575485 857.79592836 26.10575485 857.79592836 26.10575485 861.1398077 C26.76575485 861.1398077 27.42575485 861.1398077 28.10575485 861.1398077 C31.10575485 866.7648077 31.10575485 866.7648077 31.10575485 870.1398077 C31.76575485 870.1398077 32.42575485 870.1398077 33.10575485 870.1398077 C34.56795765 872.70016691 36.02560639 875.2629433 37.48075485 877.8273077 C38.09950485 878.9091534 38.09950485 878.9091534 38.73075485 880.01285458 C40.79673619 883.6616442 42.59456268 887.22059435 44.10575485 891.1398077 C44.76575485 892.1298077 45.42575485 893.1198077 46.10575485 894.1398077 C49.09543599 894.60573991 49.09543599 894.60573991 52.68622971 894.53853512 C53.3698918 894.54518194 54.05355389 894.55182877 54.75793302 894.55867702 C57.05973254 894.57740069 59.36101654 894.57469558 61.66288376 894.57218075 C63.30848556 894.58119224 64.95408063 894.59151793 66.5996666 894.60306454 C71.07669563 894.6307329 75.55359767 894.63993233 80.03070116 894.64591861 C84.70594765 894.6552768 89.3810983 894.68147799 94.05628586 894.70592403 C102.91373375 894.74966331 111.77116313 894.77816457 120.62868631 894.80124742 C130.71082068 894.82825938 140.79285899 894.87217326 150.8749249 894.91753614 C171.61848328 895.01048875 192.36207041 895.08212077 213.10575485 895.1398077 C210.0578782 896.72035693 207.32939431 897.66693799 203.96512985 898.39371395 C202.97641891 898.60834286 201.98770798 898.82297176 200.9690361 899.04410458 C199.94165329 899.26131161 198.91427048 899.47851864 197.85575485 899.7023077 C196.84384079 899.92338192 195.83192673 900.14445614 194.7893486 900.37222958 C186.56235842 902.13820477 178.62293701 903.29085091 170.19874191 903.2802496 C169.06777846 903.28470628 169.06777846 903.28470628 167.91396725 903.289253 C165.41001381 903.29786305 162.9061086 903.29944161 160.40214157 903.30094051 C158.59791081 903.30557385 156.79368103 903.3105992 154.98945236 903.31598568 C150.10538183 903.32905505 145.22132501 903.33554299 140.33723974 903.33999634 C137.2844509 903.34293366 134.23166576 903.34703952 131.17887878 903.35150051 C121.62250788 903.36515605 112.06614549 903.37483431 102.50976551 903.3787024 C91.48557302 903.38318975 80.46150411 903.4007771 69.4373492 903.429703 C60.90722585 903.45130757 52.37713732 903.4614059 43.84698689 903.46274352 C38.75516379 903.46379168 33.66345716 903.46970291 28.5716629 903.48756313 C23.78635305 903.50402439 19.00124755 903.5062088 14.21591949 903.49742413 C12.46073993 903.49665293 10.70554945 903.50100739 8.95039749 903.51088238 C6.55295469 903.52357989 4.1562383 903.51773759 1.75880051 903.50730038 C1.06580003 903.51535678 0.37279955 903.52341319 -0.34120095 903.53171372 C-4.90561047 903.48529286 -8.01761423 902.53627983 -11.89424515 900.1398077 C-13.74605179 897.68570614 -13.74605179 897.68570614 -15.3044014 894.7491827 C-15.89495316 893.65903866 -16.48550491 892.56889462 -17.09395218 891.4457159 C-17.71502318 890.26048652 -18.33595058 889.07518189 -18.95674515 887.8898077 C-19.61489173 886.66379817 -20.274912 885.43879279 -20.93672562 884.21475887 C-22.28386269 881.72141551 -23.624069 879.22453285 -24.96016312 876.72525692 C-27.72106619 871.58209576 -30.62213772 866.51958291 -33.51924515 861.4523077 C-37.93018157 853.69137831 -42.22630586 845.87547226 -46.45674515 838.0148077 C-50.93450594 829.6961054 -55.52797893 821.45812055 -60.24092484 813.27066708 C-66.26893331 802.78342267 -72.11129909 792.19342977 -77.9709053 781.61148739 C-81.10669517 775.95130308 -84.25078536 770.29573483 -87.39424515 764.6398077 C-91.15745959 757.86719955 -94.91989666 751.09416345 -98.6794014 744.3194952 C-104.73169244 733.41536754 -110.79528821 722.51791348 -116.89424515 711.6398077 C-124.90160237 697.35787724 -132.84539333 683.04082968 -140.78975296 668.72379208 C-147.47102732 656.68440445 -154.16057641 644.64998609 -160.89424515 632.6398077 C-168.90160237 618.35787724 -176.84539333 604.04082968 -184.78975296 589.72379208 C-186.0508915 587.45127116 -187.31228425 585.1788913 -188.57393265 582.9066534 C-189.82487533 580.65310742 -191.074882 578.39904159 -192.32393265 576.14444637 C-195.40778349 570.5845257 -198.5137939 565.0392455 -201.66768265 559.51871395 C-222.93483346 522.22125887 -233.74982542 485.39612154 -231.89424515 442.1398077 C-231.85412308 441.15399715 -231.81400101 440.16818661 -231.77266312 439.15250301 C-230.41150391 411.13572787 -222.25321307 382.74871173 -208.89424515 358.1398077 C-207.91316396 356.30159277 -206.93274085 354.46302652 -205.9528389 352.6241827 C-200.08538328 341.66537093 -194.05186971 330.80464436 -187.91109085 319.99698544 C-183.69241198 312.57001799 -179.53394185 305.11105524 -175.39424515 297.6398077 C-170.76373906 289.28563743 -166.10559242 280.94866056 -161.39424515 272.6398077 C-156.06024804 263.23130918 -150.79556544 253.78563118 -145.55049515 244.3273077 C-140.77889508 235.72471045 -135.97834723 227.13872947 -131.1662178 218.55875301 C-126.86720799 210.88894242 -122.59580406 203.20409427 -118.33174515 195.5148077 C-113.20051438 186.26384135 -108.02308135 177.04074902 -102.80586624 167.83804989 C-98.00675159 159.36248889 -93.27668455 150.84930415 -88.55269241 142.33170223 C-81.46288153 129.55091792 -74.31368123 116.80360169 -67.16475296 104.05582333 C-60.55218154 92.26284485 -53.95529161 80.46154354 -47.39424515 68.6398077 C-41.98924556 58.90104457 -36.57031784 49.17031799 -31.11543655 39.45938778 C-28.39934048 34.62300687 -25.69206663 29.78245736 -23.01761246 24.92288876 C-22.05746254 23.1790874 -21.0941575 21.4370245 -20.13081741 19.69498348 C-18.91879081 17.50236775 -17.71197073 15.30686325 -16.51118851 13.10806942 C-15.69146561 11.6291119 -15.69146561 11.6291119 -14.85518265 10.12027645 C-14.14047806 8.81933041 -14.14047806 8.81933041 -13.41133499 7.49210262 C-9.7911035 1.87882125 -6.61797389 0.02162726 0 0 Z " fill="#404040" transform="translate(238.89424514770508,49.86019229888916)"/>
<path d="M0 0 C3.52195506 0.03158452 7.04393897 0.03421918 10.56601381 0.04012704 C17.21332525 0.05557245 23.86021795 0.0964723 30.50734627 0.14687449 C38.08425084 0.20306069 45.66117703 0.23032745 53.23823857 0.25535166 C68.80423029 0.30739855 84.36980589 0.39515613 99.93549013 0.50696969 C101.19455532 2.69487676 102.45175403 4.88382281 103.70795107 7.07337594 C104.05900911 7.68298165 104.41006716 8.29258737 104.77176332 8.92066598 C108.11567567 14.75503358 111.20731372 20.70262536 114.26105165 26.69422555 C118.94046555 35.87015271 123.69450801 44.9957673 128.68549013 54.00696969 C134.59895744 64.70284612 140.13546246 75.5856168 145.69266176 86.46906686 C150.35053545 95.58670836 155.03373039 104.67602187 159.99799013 113.63196969 C165.21842736 123.05169753 170.14997212 132.61083753 175.06049013 142.19446969 C175.45435915 142.96302285 175.84822817 143.73157601 176.25403261 144.52341866 C177.79281439 147.5263893 179.33142811 150.52944594 180.86969423 153.53268075 C186.23752244 164.00702775 191.72957122 174.41212746 197.30658388 184.77650094 C198.55814165 187.10318689 199.80953273 189.42996103 201.06049013 191.75696969 C201.37572634 192.34323129 201.69096254 192.92949288 202.01575136 193.53351998 C207.18920596 203.1632548 212.24732495 212.84898908 217.24799013 222.56946969 C217.5885544 223.23141335 217.92911867 223.89335702 218.28000307 224.57535958 C219.60783013 227.1565787 220.93551734 229.73786969 222.26298952 232.31927133 C224.81996546 237.28898097 227.39564978 242.2483725 229.99799013 247.19446969 C230.37262392 247.90716012 230.74725771 248.61985055 231.13324404 249.35413766 C233.59996275 254.02699896 236.10894332 258.67618952 238.63080263 263.31946969 C258.31109607 299.59810285 274.80098251 339.56941971 262.93549013 381.50696969 C262.60169095 382.84116404 262.26974801 384.17582379 261.93939638 385.51087594 C257.26634695 403.57804283 248.06985959 419.32888414 238.61127138 435.26478219 C234.94454589 441.4532911 231.42781579 447.7188229 227.93549013 454.00696969 C222.83808536 463.1646941 217.62239732 472.2439223 212.3217206 481.28529 C207.85270278 488.91495779 203.44187382 496.57674455 199.06049013 504.25696969 C198.56044466 505.13344659 198.56044466 505.13344659 198.05029726 506.02763009 C196.35545523 508.99888949 194.66141029 511.97060241 192.96771669 514.94251657 C189.96078269 520.21790264 186.94689396 525.48931407 183.93347597 530.76099801 C182.26719083 533.67615627 180.60136386 536.59157632 178.93549013 539.50696969 C178.26882566 540.67363761 177.60215899 541.84030428 176.93549013 543.00696969 C176.60549013 543.58446969 176.27549013 544.16196969 175.93549013 544.75696969 C156.93549015 578.00696965 156.93549015 578.00696965 155.93550539 579.75693917 C155.26878348 580.92370506 154.60206595 582.09047345 153.9353528 583.25724435 C152.26956729 586.17241347 150.60370586 589.08753916 148.9376874 592.00257516 C145.92709826 597.27038192 142.91707761 602.5385095 139.90985537 607.80823922 C133.06468921 619.80342035 126.20691249 631.7911522 119.31049013 643.75696969 C118.70455019 644.81182565 118.09861025 645.8666816 117.47430849 646.95350289 C114.31918099 652.43315067 111.11980207 657.88029035 107.84955263 663.29212594 C107.19293642 664.38815133 106.53632021 665.48417672 105.85980654 666.613415 C104.60609579 668.70219064 103.34068107 670.78399978 102.06195498 672.85755563 C101.50459658 673.78987008 100.94723818 674.72218453 100.37299013 675.68275094 C99.62855654 676.90345284 99.62855654 676.90345284 98.86908388 678.14881539 C97.6981133 681.10655724 97.92920847 682.51481891 98.93549013 685.50696969 C100.0822405 687.48633453 100.0822405 687.48633453 101.60345888 689.29993844 C102.15968935 690.00312203 102.71591982 690.70630563 103.28900576 691.43079782 C103.8942206 692.17780953 104.49943544 692.92482125 105.12299013 693.69446969 C106.40838363 695.31277086 107.69353319 696.93126581 108.97845888 698.54993844 C109.63765322 699.37413278 110.29684755 700.19832711 110.97601748 701.04749703 C113.99762616 704.84013171 116.96528115 708.6740479 119.93549013 712.50696969 C121.10186335 714.00719788 122.26853098 715.50719723 123.43549013 717.00696969 C125.76882346 720.00696969 128.1021568 723.00696969 130.43549013 726.00696969 C131.01339296 726.74995309 131.5912958 727.49293649 132.18671083 728.25843453 C133.3494438 729.75344649 134.5120422 731.24856313 135.6745038 732.7437861 C138.65024238 736.57098724 141.6285368 740.39615518 144.61127138 744.21790719 C148.06169677 748.6406332 151.50378808 753.06969912 154.93549013 757.50696969 C155.42549501 758.14022164 155.9154999 758.7734736 156.42035341 759.425915 C157.72307156 761.11511381 159.01844371 762.80960109 160.31049013 764.50696969 C161.37396669 765.89915719 161.37396669 765.89915719 162.45892763 767.31946969 C163.93549013 769.50696969 163.93549013 769.50696969 163.93549013 771.50696969 C163.27549013 771.50696969 162.61549013 771.50696969 161.93549013 771.50696969 C160.64642763 770.04603219 160.64642763 770.04603219 159.31049013 768.13196969 C158.64146669 767.19224313 158.64146669 767.19224313 157.95892763 766.23353219 C156.93549013 764.50696969 156.93549013 764.50696969 156.93549013 762.50696969 C156.27549013 762.50696969 155.61549013 762.50696969 154.93549013 762.50696969 C153.64642763 761.04603219 153.64642763 761.04603219 152.31049013 759.13196969 C151.64146669 758.19224313 151.64146669 758.19224313 150.95892763 757.23353219 C149.93549013 755.50696969 149.93549013 755.50696969 149.93549013 753.50696969 C149.27549013 753.50696969 148.61549013 753.50696969 147.93549013 753.50696969 C146.64642763 752.04603219 146.64642763 752.04603219 145.31049013 750.13196969 C144.64146669 749.19224313 144.64146669 749.19224313 143.95892763 748.23353219 C142.93549013 746.50696969 142.93549013 746.50696969 142.93549013 744.50696969 C142.27549013 744.50696969 141.61549013 744.50696969 140.93549013 744.50696969 C139.64642763 743.04603219 139.64642763 743.04603219 138.31049013 741.13196969 C137.64146669 740.19224313 137.64146669 740.19224313 136.95892763 739.23353219 C135.93549013 737.50696969 135.93549013 737.50696969 135.93549013 735.50696969 C135.27549013 735.50696969 134.61549013 735.50696969 133.93549013 735.50696969 C132.64642763 734.04603219 132.64642763 734.04603219 131.31049013 732.13196969 C130.64146669 731.19224313 130.64146669 731.19224313 129.95892763 730.23353219 C128.93549013 728.50696969 128.93549013 728.50696969 128.93549013 726.50696969 C128.27549013 726.50696969 127.61549013 726.50696969 126.93549013 726.50696969 C125.64642763 725.04603219 125.64642763 725.04603219 124.31049013 723.13196969 C123.64146669 722.19224313 123.64146669 722.19224313 122.95892763 721.23353219 C121.93549013 719.50696969 121.93549013 719.50696969 121.93549013 717.50696969 C121.27549013 717.50696969 120.61549013 717.50696969 119.93549013 717.50696969 C118.64642763 716.04603219 118.64642763 716.04603219 117.31049013 714.13196969 C116.64146669 713.19224313 116.64146669 713.19224313 115.95892763 712.23353219 C114.93549013 710.50696969 114.93549013 710.50696969 114.93549013 708.50696969 C114.27549013 708.50696969 113.61549013 708.50696969 112.93549013 708.50696969 C111.64642763 707.04603219 111.64642763 707.04603219 110.31049013 705.13196969 C109.64146669 704.19224313 109.64146669 704.19224313 108.95892763 703.23353219 C107.93549013 701.50696969 107.93549013 701.50696969 107.93549013 699.50696969 C107.27549013 699.50696969 106.61549013 699.50696969 105.93549013 699.50696969 C104.64642763 698.04603219 104.64642763 698.04603219 103.31049013 696.13196969 C102.64146669 695.19224313 102.64146669 695.19224313 101.95892763 694.23353219 C100.93549013 692.50696969 100.93549013 692.50696969 100.93549013 690.50696969 C100.27549013 690.50696969 99.61549013 690.50696969 98.93549013 690.50696969 C98.54370671 689.85767369 98.15192329 689.2083777 97.74826765 688.53940606 C96.0346996 686.18930782 96.0346996 686.18930782 92.83330679 685.99916101 C90.90168959 685.99363025 90.90168959 685.99363025 88.93104982 685.98798776 C88.21386489 685.98048651 87.49667995 685.97298525 86.75776213 685.96525669 C84.34837011 685.9449148 81.93991334 685.95309438 79.53046083 685.96107125 C77.80589281 685.95233972 76.0813329 685.94185542 74.3567853 685.92974496 C69.66903183 685.90181271 64.98154176 685.89848186 60.29371715 685.89946485 C55.39691919 685.89634193 50.50024095 685.87073674 45.60350466 685.84748483 C36.32816435 685.80687353 27.05289443 685.78657208 17.77747887 685.77351093 C7.2189012 685.75765823 -3.33955637 685.71924994 -13.89806449 685.67891765 C-35.62017338 685.59644852 -57.3422767 685.54240026 -79.06450987 685.50696969 C-80.38450987 682.86696969 -81.70450987 680.22696969 -83.06450987 677.50696969 C-42.47450987 677.50696969 -1.88450987 677.50696969 39.93549013 677.50696969 C40.59549013 675.52696969 41.25549013 673.54696969 41.93549013 671.50696969 C42.8065683 669.82729228 43.73058419 668.17418075 44.70111513 666.54993844 C45.25412294 665.61536813 45.80713076 664.68079782 46.37689638 663.71790719 C46.97373232 662.72017282 47.57056826 661.72243844 48.18549013 660.69446969 C53.21285866 652.19061857 58.13805063 643.64263252 62.93549013 635.00696969 C68.03302406 625.84931464 73.248581 616.7700204 78.54925966 607.72864938 C83.01827748 600.09898159 87.42910645 592.43719483 91.81049013 584.75696969 C92.3105356 583.88049279 92.3105356 583.88049279 92.820683 582.98630929 C94.51552503 580.01504989 96.20956997 577.04333697 97.90326357 574.07142282 C100.91019757 568.79603674 103.9240863 563.52462531 106.93750429 558.25294137 C108.60378943 555.33778311 110.26961641 552.42236307 111.93549013 549.50696969 C112.60215461 548.34030177 113.26882127 547.1736351 113.93549013 546.00696969 C114.26549013 545.42946969 114.59549013 544.85196969 114.93549013 544.25696969 C133.93549016 511.00696964 133.93549016 511.00696964 134.93547487 509.25700021 C135.60219678 508.09023432 136.26891431 506.92346593 136.93562746 505.75669503 C138.60141297 502.84152591 140.2672744 499.92640022 141.93329287 497.01136422 C144.943882 491.74355746 147.95390265 486.47542988 150.9611249 481.20570016 C157.80629042 469.21052014 164.66382958 457.22264886 171.56049013 445.25696969 C172.17295595 444.19123727 172.78542177 443.12550485 173.41644716 442.0274775 C176.46360429 436.73712842 179.54598162 431.47356552 182.70502138 426.24915719 C191.9865791 410.82634489 200.00652629 395.20141606 203.93549013 377.50696969 C204.11176943 376.7212861 204.28804873 375.9356025 204.46966982 375.12611032 C208.33097031 356.10644733 207.15519903 335.14755263 201.93549013 316.50696969 C201.75888857 315.85309274 201.58228701 315.19921578 201.40033388 314.52552438 C196.64906018 297.39454307 187.59317584 281.6304322 179.27435732 266.03187203 C177.40264339 262.5021008 175.56334421 258.95579534 173.72259951 255.40980172 C168.45670881 245.26685928 163.09047119 235.18165439 157.67377138 225.11851144 C152.44129767 215.39088845 147.34357974 205.59893397 142.29364443 195.77552438 C138.33834092 188.08652007 134.30592866 180.44985744 130.12299013 172.88196969 C124.44070521 162.59694597 119.09700805 152.14679001 113.74878359 141.6858027 C109.27425958 132.93824112 104.76340805 124.22584713 99.99799013 115.63196969 C94.11830446 105.02699512 88.63228483 94.22635672 83.12018251 83.42759347 C78.04251031 73.48492054 72.89065869 63.60631992 67.44305849 53.85975289 C64.47546346 48.53844711 61.69250174 43.15062509 59.00897646 37.68104196 C55.63435382 30.82148082 52.04525602 24.07573083 48.43939638 17.33533883 C47.98435732 16.47674264 47.52931826 15.61814645 47.06049013 14.73353219 C46.65056826 13.9660566 46.24064638 13.19858102 45.81830263 12.4078486 C44.93549013 10.50696969 44.93549013 10.50696969 44.93549013 8.50696969 C15.23549013 8.50696969 -14.46450987 8.50696969 -45.06450987 8.50696969 C-31.576946 -1.60870321 -16.12105641 -0.16930484 0 0 Z " fill="#404040" transform="translate(776.0645098686218,157.49303030967712)"/>
<path d="M0 0 C2.56077431 0.05730759 3.83425724 0.13052053 5.75610352 1.86645508 C10.52070721 8.55927178 14.53791056 15.66215833 18.5625 22.8125 C19.28858294 24.09141821 20.01514232 25.37006606 20.7421875 26.6484375 C22.61272415 29.94562001 24.4794676 33.24425283 26.3125 36.5625 C26.74280518 37.27631836 27.17311035 37.99013672 27.61645508 38.72558594 C28.3125 40.5625 28.3125 40.5625 26.93359375 44.1875 C26.21526069 45.6505518 25.4866753 47.1085975 24.75 48.5625 C21.53478033 55.30716189 19.13451875 61.92344427 17.375 69.1875 C17.17640381 70.00347656 16.97780762 70.81945312 16.77319336 71.66015625 C15.03927853 79.1525137 14.18998316 86.45680118 14.14453125 94.1484375 C14.13763527 95.19044815 14.13763527 95.19044815 14.13059998 96.25350952 C14.0980909 103.0355549 14.15321123 109.81735675 14.25439453 116.59863281 C14.28835763 118.91554383 14.31414307 121.23265172 14.31982422 123.54980469 C14.42729302 136.82875495 19.79670234 146.45090233 26.56542969 157.66650391 C28.31539452 160.56729805 30.02621027 163.48785404 31.7265625 166.41796875 C34.05368186 170.42739874 36.39374788 174.42880643 38.7421875 178.42578125 C42.34888114 184.59222279 45.83978811 190.8198754 49.3125 197.0625 C53.88805742 205.28458385 58.54820895 213.44831681 63.3125 221.5625 C68.68446793 230.71163289 73.90326525 239.93653131 79.0625 249.20703125 C83.06214452 256.37603695 87.15598044 263.48342763 91.3125 270.5625 C96.68446793 279.71163289 101.90326525 288.93653131 107.0625 298.20703125 C111.06214452 305.37603695 115.15598044 312.48342763 119.3125 319.5625 C124.68446793 328.71163289 129.90326525 337.93653131 135.0625 347.20703125 C139.06214452 354.37603695 143.15598044 361.48342763 147.3125 368.5625 C152.07679416 376.6766885 156.73672499 384.84053396 161.3125 393.0625 C165.91120718 401.32462763 170.59157595 409.53089385 175.375 417.6875 C180.42353813 426.29617378 185.3849189 434.94815564 190.28198242 443.64379883 C194.55829929 451.23549859 198.86407942 458.8100514 203.1875 466.375 C203.52358276 466.9632254 203.85966553 467.55145081 204.20593262 468.15750122 C209.09011716 476.70365473 214.00747967 485.23019022 218.9375 493.75 C224.40786155 503.20465468 229.77417747 512.71260758 235.08300781 522.25878906 C239.93692026 530.96034883 244.95244036 539.56278935 250.04711914 548.12548828 C250.6064917 549.07278809 251.16586426 550.02008789 251.7421875 550.99609375 C252.23960449 551.83197021 252.73702148 552.66784668 253.24951172 553.52905273 C254.3125 555.5625 254.3125 555.5625 254.3125 557.5625 C335.8225 557.5625 417.3325 557.5625 501.3125 557.5625 C497.51915421 563.88474298 497.51915421 563.88474298 493.3125 565.5625 C489.45220061 565.99428791 485.61621902 565.96249505 481.73535156 565.9367218 C479.95788984 565.94268341 479.95788984 565.94268341 478.14451981 565.94876546 C474.8588934 565.95672543 471.57360697 565.9512252 468.28800011 565.94001496 C464.7432983 565.93117307 461.19863211 565.93961643 457.65393066 565.94587708 C450.71125888 565.95536719 443.768691 565.94876338 436.82602692 565.93661413 C428.74248489 565.92299521 420.65896763 565.9246319 412.57541704 565.92674746 C398.15312127 565.92993766 383.73087488 565.91826788 369.30859375 565.89868164 C355.31118262 565.87967736 341.31382936 565.87259406 327.31640625 565.87817383 C312.07731091 565.88423059 296.83824102 565.88405644 281.5991478 565.872688 C279.97442373 565.87148069 278.34969966 565.87027471 276.72497559 565.86907005 C275.92556211 565.86846651 275.12614863 565.86786298 274.3025105 565.86724115 C268.66671794 565.86336055 263.03093485 565.86375618 257.3951416 565.8656559 C250.52780655 565.86777725 243.66052221 565.86255833 236.79320145 565.84804235 C233.28881362 565.84079494 229.78449968 565.83672427 226.28010559 565.84128571 C222.48320411 565.84449611 218.68652685 565.83545417 214.88964844 565.82319641 C213.77924824 565.82697573 212.66884804 565.83075506 211.52479935 565.83464891 C210.50774288 565.82881671 209.49068642 565.82298452 208.44281006 565.81697559 C207.56646786 565.81610882 206.69012566 565.81524204 205.78722763 565.814349 C202.15144189 565.44434101 199.24392584 564.59630619 196.76660156 561.84667969 C196.3331543 561.14961914 195.89970703 560.45255859 195.453125 559.734375 C194.94974609 558.92935547 194.44636719 558.12433594 193.92773438 557.29492188 C190.90007725 552.17316575 187.95348758 547.01260266 185.0625 541.8125 C184.12664062 540.14767578 184.12664062 540.14767578 183.171875 538.44921875 C180.62350352 533.88521723 178.15957476 529.46203847 176.3125 524.5625 C179.43342434 522.72216024 182.55988217 520.89143744 185.6875 519.0625 C187.02167969 518.27552734 187.02167969 518.27552734 188.3828125 517.47265625 C189.23359375 516.97636719 190.084375 516.48007812 190.9609375 515.96875 C191.74645996 515.50791016 192.53198242 515.04707031 193.34130859 514.57226562 C195.3125 513.5625 195.3125 513.5625 197.3125 513.5625 C190.29640299 500.39805856 183.11434265 487.35951891 175.54858398 474.50244141 C171.5410381 467.6880044 167.61944417 460.8312095 163.75 453.9375 C157.44252102 442.71016798 150.90998774 431.62141032 144.3125 420.5625 C139.55727431 424.08818605 134.87888213 427.67023474 130.3125 431.4375 C129.36375 432.21867187 128.415 432.99984375 127.4375 433.8046875 C126.73625 434.38476562 126.035 434.96484375 125.3125 435.5625 C122.50084098 432.20169478 120.22653311 428.85779955 118.1328125 425.01171875 C117.54105225 423.93325684 116.94929199 422.85479492 116.33959961 421.74365234 C115.71190674 420.59074707 115.08421387 419.4378418 114.4375 418.25 C113.09103699 415.79607686 111.73976023 413.3448325 110.38671875 410.89453125 C110.04518265 410.27570068 109.70364655 409.65687012 109.35176086 409.01928711 C106.07724977 403.10410386 102.67903986 397.26433711 99.25 391.4375 C94.50440344 383.36598112 89.86523978 375.24436396 85.3125 367.0625 C80.736836 358.8404741 76.07679252 350.6766857 71.3125 342.5625 C65.94053207 333.41336711 60.72173475 324.18846869 55.5625 314.91796875 C51.56285548 307.74896305 47.46901956 300.64157237 43.3125 293.5625 C37.94053207 284.41336711 32.72173475 275.18846869 27.5625 265.91796875 C23.56285548 258.74896305 19.46901956 251.64157237 15.3125 244.5625 C9.94053207 235.41336711 4.72173475 226.18846869 -0.4375 216.91796875 C-4.43714539 209.7489615 -8.53103527 202.64160595 -12.6875 195.5625 C-18.19142754 186.18710023 -23.56782137 176.74726958 -28.83520508 167.23681641 C-31.23229537 162.91280135 -33.62284742 158.60274149 -36.23828125 154.40625 C-41.31313383 146.22261906 -43.46451366 139.05327829 -44.6875 129.5625 C-44.7795874 128.93577393 -44.8716748 128.30904785 -44.96655273 127.66333008 C-45.88162164 120.79261339 -45.87360744 113.90040184 -45.87280273 106.98071289 C-45.87497763 104.89643554 -45.89316002 102.81269908 -45.91210938 100.72851562 C-46.07847164 62.03740653 -30.78607204 29.38512349 -4.6875 1.5625 C-3.6875 0.5625 -3.6875 0.5625 0 0 Z " fill="#404040" transform="translate(387.6875,387.4375)"/>
<path d="M0 0 C57.75 0 115.5 0 175 0 C177.97 5.28 180.94 10.56 184 16 C186.26102518 19.90221327 188.52844094 23.79893665 190.8125 27.6875 C195.25052234 35.26812194 199.65510497 42.86561754 204 50.5 C208.285462 58.02839814 212.62622858 65.52256982 217 73 C221.37377209 80.47743133 225.71444633 87.97165347 230 95.5 C234.20255842 102.88240121 238.4589679 110.23118506 242.75 117.5625 C248.23398128 126.93401467 253.6400275 136.34803336 259.01538086 145.78204346 C264.28404442 155.02630886 269.61735907 164.23105967 274.9921875 173.4140625 C279.19725381 180.6049179 283.34091394 187.82883663 287.46191406 195.06811523 C291.2644877 201.73771866 295.12368435 208.37302369 299 215 C303.87088859 223.32730517 308.68833344 231.68244672 313.4609375 240.06640625 C317.26384049 246.73657737 321.12335296 253.37245714 325 260 C329.87088859 268.32730517 334.68833344 276.68244672 339.4609375 285.06640625 C343.26384049 291.73657737 347.12335296 298.37245714 351 305 C355.87088859 313.32730517 360.68833344 321.68244672 365.4609375 330.06640625 C369.26384049 336.73657737 373.12335296 343.37245714 377 350 C381.86492405 358.31710815 386.67676556 366.66185506 391.44335938 375.03564453 C396.00077167 383.02937003 400.63503857 390.97754949 405.28125 398.91992188 C406.37383233 400.78768126 407.46262665 402.65766382 408.546875 404.53027344 C409.44700306 406.06012818 410.37001633 407.57706223 411.328125 409.07128906 C412.93209924 411.61869678 413.99911512 413.43633173 414.00390625 416.48828125 C412.63139604 419.92222702 410.86816462 423.04618102 408.9375 426.1875 C408.53337891 426.85096436 408.12925781 427.51442871 407.71289062 428.19799805 C404.22102235 433.82993347 400.35388511 439.00048174 396 444 C395.19820312 444.92296875 394.39640625 445.8459375 393.5703125 446.796875 C386.49143458 454.80301807 386.49143458 454.80301807 381.6875 455.4375 C378 455 378 455 375.734375 452.77734375 C372.16173132 448.17853676 369.42294881 443.02541839 366.58639526 437.95501709 C365.18173069 435.44444763 363.76369254 432.94152163 362.3462677 430.43814087 C361.61922198 429.15397508 360.89281435 427.86944782 360.16703796 426.58456421 C356.81186334 420.64926992 353.38466257 414.75731412 349.9375 408.875 C343.20693498 397.3718525 336.54343813 385.83075853 329.89111328 374.28222656 C326.76319852 368.85340058 323.63141552 363.42680719 320.5 358 C319.24998121 355.83334417 317.99998122 353.6666775 316.75 351.5 C316.13125 350.4275 315.5125 349.355 314.875 348.25 C279.25 286.5 279.25 286.5 277.37475586 283.24951172 C276.12564482 281.08442929 274.87645871 278.91939018 273.62719727 276.75439453 C270.48797691 271.31384294 267.35009437 265.87252784 264.21484375 260.4296875 C258.16944841 249.93767906 252.10889781 239.45518324 246 229 C239.25298806 217.45270484 232.56660682 205.87097973 225.89111328 194.28222656 C222.76319852 188.85340058 219.63141552 183.42680719 216.5 178 C215.24998121 175.83334417 213.99998122 173.6666775 212.75 171.5 C212.13125 170.4275 211.5125 169.355 210.875 168.25 C160.25 80.5 160.25 80.5 158.37475586 77.24951172 C157.12564482 75.08442929 155.87645871 72.91939018 154.62719727 70.75439453 C151.48797691 65.31384294 148.35009437 59.87252784 145.21484375 54.4296875 C138.27988723 42.39407851 131.31922349 30.37436389 124.30249023 18.38623047 C123.75149658 17.44408691 123.20050293 16.50194336 122.6328125 15.53125 C122.14699707 14.70173828 121.66118164 13.87222656 121.16064453 13.01757812 C120.40241841 11.69953424 119.68002155 10.3600431 119 9 C58.61 8.505 58.61 8.505 -3 8 C-2.67 6.02 -2.34 4.04 -2 2 C-1.34 2 -0.68 2 0 2 C0 1.34 0 0.68 0 0 Z " fill="#404040" transform="translate(345,160)"/>
<path d="M0 0 C1.82614786 -0.00271493 3.65229462 -0.00627866 5.47843933 -0.01062012 C10.40355488 -0.0196822 15.32858599 -0.01622675 20.25370288 -0.00986195 C25.41897978 -0.00477518 30.58424977 -0.00950031 35.74952698 -0.01263428 C44.41343476 -0.01626386 53.07730835 -0.01149894 61.74121094 -0.00195312 C71.75588599 0.00895355 81.77047974 0.00538576 91.78515285 -0.00560594 C100.3968737 -0.01467889 109.00857007 -0.01596477 117.62029415 -0.0107286 C122.75838083 -0.00761204 127.89642926 -0.00719145 133.03451347 -0.01380157 C137.85842647 -0.01957534 142.68223432 -0.01557758 147.50613594 -0.00401306 C149.27624461 -0.00136768 151.04636213 -0.00212949 152.81646729 -0.00653839 C155.23143784 -0.01199946 157.64607087 -0.00515325 160.0610199 0.00482178 C160.76198664 0.00036033 161.46295338 -0.00410111 162.18516153 -0.00869775 C166.10455584 0.02272829 169.15825831 0.42187655 172.64282227 2.25878906 C176.64282227 6.69122149 176.64282227 6.69122149 176.64282227 8.25878906 C175.92741681 8.25841204 175.21201136 8.25803501 174.47492695 8.25764656 C156.92298602 8.25047375 139.37140183 8.27692601 121.81956959 8.33906746 C113.33098347 8.36834192 104.84264352 8.38696753 96.35400391 8.37890625 C88.93988884 8.3718942 81.52615611 8.38650827 74.11213416 8.42522514 C70.20030306 8.44494727 66.28906871 8.45511414 62.3772068 8.4392128 C10.80473783 8.25260349 -36.29593792 26.14302109 -80.35717773 52.25878906 C-79.77793767 56.05883996 -78.70133533 58.76208136 -76.72436523 62.04785156 C-76.17296875 62.975896 -75.62157227 63.90394043 -75.0534668 64.86010742 C-74.45244141 65.85792236 -73.85141602 66.8557373 -73.23217773 67.88378906 C-67.87335788 76.91308104 -62.67368596 86.00055394 -57.60717773 95.19628906 C-52.92669462 103.68816959 -48.18367565 112.12486897 -43.14916992 120.4128418 C-40.35717773 125.05311354 -40.35717773 125.05311354 -40.35717773 127.25878906 C-39.69717773 127.25878906 -39.03717773 127.25878906 -38.35717773 127.25878906 C-38.68717773 127.91878906 -39.01717773 128.57878906 -39.35717773 129.25878906 C-40.17895508 129.45021484 -40.17895508 129.45021484 -41.01733398 129.64550781 C-44.34512861 130.51773445 -46.88139296 132.25595901 -49.79467773 134.07128906 C-51.46336914 135.10189453 -51.46336914 135.10189453 -53.16577148 136.15332031 C-56.36164472 138.18638303 -56.36164472 138.18638303 -59.14233398 140.52050781 C-61.35717773 142.25878906 -61.35717773 142.25878906 -63.35717773 142.25878906 C-63.64737793 141.71802734 -63.93757812 141.17726562 -64.23657227 140.62011719 C-70.63909167 128.71796581 -77.22531842 116.94797137 -84.07250977 105.29589844 C-88.61762831 97.55411714 -93.05136276 89.75513895 -97.44702148 81.92773438 C-102.03241437 73.78307007 -106.74132604 65.7134109 -111.51342773 57.67675781 C-115.43881207 51.0138123 -118.97881406 44.21451278 -122.35717773 37.25878906 C-93.11614494 21.49199848 -63.07199109 8.82771736 -30.35717773 2.25878906 C-29.14443633 1.99971205 -29.14443633 1.99971205 -27.90719509 1.73540115 C-18.59347311 -0.0601182 -9.44289971 -0.02372682 0 0 Z " fill="#414141" transform="translate(713.357177734375,49.7412109375)"/>
<path d="M0 0 C2.05859375 1.65234375 2.05859375 1.65234375 3.4375 3.9375 C4.25734375 5.26201172 4.25734375 5.26201172 5.09375 6.61328125 C5.7228125 7.73089844 6.351875 8.84851563 7 10 C7.42023438 10.73782715 7.84046875 11.4756543 8.2734375 12.23583984 C11.24264124 17.45815759 14.14477282 22.71459006 17 28 C14.04953883 31.14379781 10.69779241 32.90855563 6.875 34.8125 C6.26785156 35.13025391 5.66070312 35.44800781 5.03515625 35.77539062 C2.72334214 36.93585747 0.36916018 37.9607558 -2 39 C-3.0526857 39.49576035 -4.1053714 39.99152069 -5.18995667 40.50230408 C-18.43842322 46.24746351 -31.8075856 45.88898315 -46.03503633 45.80595303 C-49.50846653 45.79054904 -52.98181109 45.80490435 -56.45524597 45.81427002 C-62.26892523 45.82510613 -68.08214308 45.8109931 -73.89575195 45.78222656 C-80.61003015 45.74938658 -87.32322026 45.76031435 -94.0374735 45.793185 C-99.83070679 45.82040444 -105.62361284 45.82426561 -111.41688937 45.80855298 C-114.86544254 45.79921928 -118.31348307 45.79789796 -121.76200294 45.81777191 C-125.59152453 45.83831369 -129.41981863 45.80985712 -133.24926758 45.77636719 C-134.38637177 45.78851257 -135.52347595 45.80065796 -136.69503784 45.81317139 C-144.154172 45.69195446 -144.154172 45.69195446 -146.60999107 43.68289948 C-148.12669997 41.51604531 -149 39.66823918 -149 37 C-148.06500168 37.0030162 -147.13000336 37.00603241 -146.16667175 37.00914001 C-137.26905633 37.03322132 -128.37214463 37.019812 -119.47461987 36.97153378 C-114.90236715 36.94787984 -110.33083585 36.93653811 -105.75854492 36.95532227 C-77.9933632 37.56139353 -77.9933632 37.56139353 -52 29 C-51.03602295 28.54375244 -50.0720459 28.08750488 -49.07885742 27.61743164 C-46.81775463 26.51897862 -44.66369343 25.3397908 -42.5 24.0625 C-41.3877002 23.42320557 -41.3877002 23.42320557 -40.25292969 22.77099609 C-32.80869455 18.42500548 -25.8530592 13.69281145 -19.5390625 7.80078125 C-18.9315918 7.24567871 -18.32412109 6.69057617 -17.69824219 6.11865234 C-16.51326701 5.02602526 -15.34824552 3.9112084 -14.20800781 2.77197266 C-9.6678652 -1.41820622 -5.89515469 -1.94344959 0 0 Z " fill="#424141" transform="translate(486,800)"/>
</svg>
